<svg xmlns="http://www.w3.org/2000/svg" xmlns:xlink="http://www.w3.org/1999/xlink" width="274.979" height="274.784" viewBox="0 0 274.979 274.784">
  <defs>
    <linearGradient id="linear-gradient" y1="0.5" x2="1.22" y2="0.5" gradientUnits="objectBoundingBox">
      <stop offset="0" stop-color="#72baff"/>
      <stop offset="1" stop-color="#7df6f1"/>
    </linearGradient>
  </defs>
  <g id="Sustainable_illustration" transform="translate(-443.5 -881)">
    <g id="Group_10799" data-name="Group 10799" transform="translate(349.99 762.039)">
      <g id="Group_10776" data-name="Group 10776" transform="translate(198.701 213.137)">
        <path id="Path_5223" data-name="Path 5223" d="M896.209,1018.306a.478.478,0,0,1-.35-.152L862.6,982.666l36.233-34.416,36.191,34.066a.48.48,0,1,1-.658.7l-35.531-33.444-34.883,33.134,32.611,34.792a.48.48,0,0,1-.35.808Z" transform="translate(-816.436 -891.946)" stroke="#77d6f8" stroke-width="1" fill="url(#linear-gradient)"/>
        <path id="Path_5224" data-name="Path 5224" d="M851,964.53a.478.478,0,0,1-.343-.145l-6.1-6.255,29.81-29.319,6.607,6.572a.48.48,0,1,1-.677.681l-5.933-5.9-28.452,27.983,5.434,5.571a.48.48,0,0,1-.344.815Z" transform="translate(-801.546 -875.9)" stroke="#77d6f8" stroke-width="1" fill="url(#linear-gradient)"/>
        <g id="Group_10775" data-name="Group 10775" transform="translate(0 0)">
          <path id="Path_5225" data-name="Path 5225" d="M671.315,641.157a4.407,4.407,0,0,1-.859-.085l-12.7-2.529a4.647,4.647,0,0,1-3.14-2.349,6.094,6.094,0,0,1-.625-4.2l.325-1.634a5.511,5.511,0,0,1,5.125-4.689,4.4,4.4,0,0,1,.859.085L673,628.29a4.649,4.649,0,0,1,3.14,2.349,6.094,6.094,0,0,1,.624,4.2l-.325,1.634A5.512,5.512,0,0,1,671.315,641.157Zm-11.876-14.521a4.556,4.556,0,0,0-4.184,3.916l-.325,1.634a5.134,5.134,0,0,0,.518,3.536,3.7,3.7,0,0,0,2.492,1.881l12.7,2.529a3.437,3.437,0,0,0,.672.067,4.556,4.556,0,0,0,4.184-3.916l.325-1.634a5.134,5.134,0,0,0-.518-3.535,3.7,3.7,0,0,0-2.492-1.881l-12.7-2.529A3.453,3.453,0,0,0,659.439,626.636Z" transform="translate(-644.135 -625.676)" stroke="#77d6f8" stroke-width="1" fill="url(#linear-gradient)"/>
          <path id="Path_5226" data-name="Path 5226" d="M615.59,843.4a4.425,4.425,0,0,1-.859-.085l-12.7-2.529a4.648,4.648,0,0,1-3.14-2.349,6.092,6.092,0,0,1-.624-4.2l.325-1.634a5.512,5.512,0,0,1,5.125-4.689,4.418,4.418,0,0,1,.859.085l12.7,2.529c2.688.535,4.377,3.471,3.765,6.545l-.325,1.634A5.512,5.512,0,0,1,615.59,843.4Zm-11.876-14.521a4.556,4.556,0,0,0-4.184,3.917l-.325,1.633a5.135,5.135,0,0,0,.518,3.536,3.7,3.7,0,0,0,2.493,1.88l12.7,2.529a3.463,3.463,0,0,0,.672.066,4.556,4.556,0,0,0,4.184-3.916l.325-1.634c.508-2.554-.842-4.984-3.011-5.416l-12.7-2.529A3.457,3.457,0,0,0,603.714,828.876Z" transform="translate(-598.137 -792.616)" stroke="#77d6f8" stroke-width="1" fill="url(#linear-gradient)"/>
          <path id="Path_5227" data-name="Path 5227" d="M639.8,706.276a4.389,4.389,0,0,1-.859-.085l-15.214-3.029a4.649,4.649,0,0,1-3.14-2.349,6.1,6.1,0,0,1-.625-4.2l.325-1.634a5.511,5.511,0,0,1,5.125-4.689,4.421,4.421,0,0,1,.859.085l15.214,3.029a4.649,4.649,0,0,1,3.14,2.349,6.093,6.093,0,0,1,.625,4.2l-.325,1.634A5.512,5.512,0,0,1,639.8,706.276Zm-14.387-15.021a4.556,4.556,0,0,0-4.184,3.916L620.9,696.8a5.135,5.135,0,0,0,.518,3.535,3.7,3.7,0,0,0,2.493,1.881l15.214,3.029a3.451,3.451,0,0,0,.672.066,4.556,4.556,0,0,0,4.184-3.916l.325-1.634a5.133,5.133,0,0,0-.518-3.535,3.7,3.7,0,0,0-2.492-1.881l-15.214-3.029A3.455,3.455,0,0,0,625.413,691.255Z" transform="translate(-616.048 -679.016)" stroke="#77d6f8" stroke-width="1" fill="url(#linear-gradient)"/>
          <path id="Path_5228" data-name="Path 5228" d="M626.219,774.5a4.422,4.422,0,0,1-.859-.085l-15.214-3.029a4.647,4.647,0,0,1-3.14-2.349,6.094,6.094,0,0,1-.624-4.2l.325-1.634a5.512,5.512,0,0,1,5.125-4.689,4.4,4.4,0,0,1,.859.085l15.214,3.029a4.648,4.648,0,0,1,3.14,2.349,6.093,6.093,0,0,1,.624,4.2l-.325,1.634A5.512,5.512,0,0,1,626.219,774.5Zm-14.388-15.021a4.556,4.556,0,0,0-4.184,3.917l-.325,1.634a5.134,5.134,0,0,0,.518,3.535,3.7,3.7,0,0,0,2.492,1.881l15.214,3.028a3.431,3.431,0,0,0,.672.067,4.555,4.555,0,0,0,4.184-3.916l.325-1.634a5.133,5.133,0,0,0-.518-3.536,3.7,3.7,0,0,0-2.492-1.881L612.5,759.54A3.436,3.436,0,0,0,611.832,759.474Z" transform="translate(-604.838 -735.328)" stroke="#77d6f8" stroke-width="1" fill="url(#linear-gradient)"/>
        </g>
        <path id="Path_5229" data-name="Path 5229" d="M857.988,702.922a.478.478,0,0,1-.31-.114c-.178-.151-4.375-3.752-4.771-8.114a30.228,30.228,0,0,1,.086-4.672,29.976,29.976,0,0,0-.913-11.593c-1.779-5.872-8.455-14.079-12.872-19.509-.8-.981-1.552-1.907-2.187-2.71a5.558,5.558,0,0,0-3.927-2.413,5.785,5.785,0,0,0-3.929,1.54l-.024.022c-.2.173-4.864,4.332-.723,10.865,1.922,3.033,9.4,7.551,9.479,7.6l.164.1.051.185a22.427,22.427,0,0,1,.579,6.841,16.045,16.045,0,0,1-5.969,11.983c-.309.3-4.831,4.831-4.94,9.3a.48.48,0,1,1-.96-.024c.122-5,5.041-9.781,5.25-9.983l.037-.032a14.909,14.909,0,0,0,5.621-11.276,22.316,22.316,0,0,0-.5-6.371c-1.173-.717-7.727-4.808-9.625-7.8-2.392-3.774-2.024-6.862-1.295-8.788a8.8,8.8,0,0,1,2.191-3.308,6.651,6.651,0,0,1,4.642-1.8,6.46,6.46,0,0,1,4.629,2.776c.631.8,1.383,1.721,2.179,2.7C844.418,663.8,851.165,672.1,853,678.152a30.794,30.794,0,0,1,.952,11.936,29.557,29.557,0,0,0-.088,4.52c.36,3.966,4.4,7.434,4.436,7.469a.48.48,0,0,1-.311.846Z" transform="translate(-786.031 -648.091)" stroke="#77d6f8" stroke-width="1" fill="url(#linear-gradient)"/>
        <path id="Path_5230" data-name="Path 5230" d="M662.666,926.846a.479.479,0,0,1-.377-.182c-.054-.068-5.432-6.8-10.426-6.9-.7-.014-1.064-.051-1.53-.1-.27-.028-.576-.059-1-.091-2.936-.22-7.8-1.365-14.309-5.571a54.191,54.191,0,0,1-6.572-4.978,65.053,65.053,0,0,1-10.16-12.1.48.48,0,0,1,.819-.5,64.029,64.029,0,0,0,9.993,11.9c.1.094,10.483,9.561,20.3,10.3.441.033.754.065,1.03.093.462.048.8.081,1.451.094,5.449.106,10.93,6.973,11.161,7.266a.48.48,0,0,1-.376.777Z" transform="translate(-614.713 -848.974)" stroke="#77d6f8" stroke-width="1" fill="url(#linear-gradient)"/>
        <path id="Path_5231" data-name="Path 5231" d="M923.588,1139.533h-.031a4.053,4.053,0,0,1,.029-8.105h.031a4.053,4.053,0,0,1-.029,8.1Zm0-7.145a3.093,3.093,0,0,0-.022,6.186h.023a3.093,3.093,0,0,0,.023-6.185Z" transform="translate(-863.436 -1043.151)" stroke="#77d6f8" stroke-width="1" fill="url(#linear-gradient)"/>
        <path id="Path_5232" data-name="Path 5232" d="M1171.948,1105.914a.479.479,0,0,1-.334-.135l-22.514-21.851a.48.48,0,1,1,.668-.689l22.514,21.851a.48.48,0,0,1-.334.825Z" transform="translate(-1052.811 -1003.261)" stroke="#77d6f8" stroke-width="1" fill="url(#linear-gradient)"/>
        <path id="Path_5233" data-name="Path 5233" d="M1111.108,942.055a.477.477,0,0,1-.321-.123l-13.67-12.3a.48.48,0,1,1,.642-.714l13.67,12.3a.48.48,0,0,1-.321.837Z" transform="translate(-1009.891 -875.888)" stroke="#77d6f8" stroke-width="1" fill="url(#linear-gradient)"/>
        <path id="Path_5234" data-name="Path 5234" d="M1152.759,1132.449a.479.479,0,0,1-.334-.135l-12.165-11.807a.48.48,0,1,1,.669-.689l12.165,11.806a.48.48,0,0,1-.334.824Z" transform="translate(-1045.514 -1033.457)" stroke="#77d6f8" stroke-width="1" fill="url(#linear-gradient)"/>
        <path id="Path_5235" data-name="Path 5235" d="M1170.217,962.893a.478.478,0,0,1-.321-.123l-12.6-11.338a.48.48,0,0,1,.642-.714l12.6,11.338a.48.48,0,0,1-.321.837Z" transform="translate(-1059.564 -893.882)" stroke="#77d6f8" stroke-width="1" fill="url(#linear-gradient)"/>
        <path id="Path_5236" data-name="Path 5236" d="M877.236,1238.844a.479.479,0,0,1-.348-.149l-12.672-13.323a.48.48,0,0,1,.7-.662l12.672,13.324a.48.48,0,0,1-.348.811Z" transform="translate(-817.664 -1120.027)" stroke="#77d6f8" stroke-width="1" fill="url(#linear-gradient)"/>
        <path id="Path_5237" data-name="Path 5237" d="M859.2,1186.436a.478.478,0,0,1-.348-.149L847.166,1174a.48.48,0,0,1,.7-.662l11.683,12.283a.48.48,0,0,1-.348.811Z" transform="translate(-803.59 -1077.626)" stroke="#77d6f8" stroke-width="1" fill="url(#linear-gradient)"/>
        <path id="Path_5238" data-name="Path 5238" d="M1054.013,1253.72a.478.478,0,0,1-.35-.151l-21.5-22.848a.48.48,0,1,1,.7-.658l21.5,22.848a.48.48,0,0,1-.349.809Z" transform="translate(-956.297 -1124.446)" stroke="#77d6f8" stroke-width="1" fill="url(#linear-gradient)"/>
        <path id="Path_5239" data-name="Path 5239" d="M1033.642,1279.36a.479.479,0,0,1-.349-.151l-11.618-12.345a.48.48,0,0,1,.7-.658l11.617,12.345a.48.48,0,0,1-.349.809Z" transform="translate(-947.641 -1154.28)" stroke="#77d6f8" stroke-width="1" fill="url(#linear-gradient)"/>
      </g>
      <g id="Group_10786" data-name="Group 10786" transform="translate(205.811 170.295)">
        <path id="Path_5250" data-name="Path 5250" d="M643.523,507.758a.384.384,0,0,1-.084.008.452.452,0,0,1-.1-.012l-4.157-.984a.412.412,0,0,1-.3-.495.416.416,0,0,1,.319-.308h0a.408.408,0,0,1,.087-.008.477.477,0,0,1,.089.012l4.161.984a.411.411,0,0,1,.3.494A.415.415,0,0,1,643.523,507.758Z" transform="translate(-638.869 -484.013)" stroke="#77d6f8" stroke-width="1" fill="url(#linear-gradient)"/>
        <path id="Path_5251" data-name="Path 5251" d="M697.843,424.122a.433.433,0,0,1-.094.009.413.413,0,0,1-.288-.125l-2.872-2.94a.41.41,0,0,1,.206-.689h0a.446.446,0,0,1,.1-.009.4.4,0,0,1,.285.124l2.876,2.941a.405.405,0,0,1,.117.292.412.412,0,0,1-.324.4Z" transform="translate(-684.766 -413.362)" stroke="#77d6f8" stroke-width="1" fill="url(#linear-gradient)"/>
        <path id="Path_5252" data-name="Path 5252" d="M806.3,385.252a.384.384,0,0,1-.087.008.411.411,0,0,1-.407-.417l.077-4.211a.418.418,0,0,1,.326-.395.435.435,0,0,1,.093-.009.411.411,0,0,1,.4.419l-.077,4.21a.419.419,0,0,1-.327.4Z" transform="translate(-776.666 -380.229)" stroke="#77d6f8" stroke-width="1" fill="url(#linear-gradient)"/>
        <path id="Path_5253" data-name="Path 5253" d="M940.936,613.029a.467.467,0,0,1-.089.009.416.416,0,0,1-.141-.031l-4-1.63a.412.412,0,0,1-.225-.535.422.422,0,0,1,.3-.248h0a.442.442,0,0,1,.092-.009.391.391,0,0,1,.144.031l4,1.631a.411.411,0,0,1,.225.535.427.427,0,0,1-.3.248Z" transform="translate(-884.508 -570.377)" stroke="#77d6f8" stroke-width="1" fill="url(#linear-gradient)"/>
        <path id="Path_5254" data-name="Path 5254" d="M644.213,601.937a.46.46,0,0,0,.089,0,.414.414,0,0,0,.14-.038l3.925-1.807a.412.412,0,0,0,.2-.545.422.422,0,0,0-.31-.234h0a.431.431,0,0,0-.092-.005.4.4,0,0,0-.142.037l-3.923,1.807a.411.411,0,0,0-.2.545.427.427,0,0,0,.312.234Z" transform="translate(-642.989 -561.072)" stroke="#77d6f8" stroke-width="1" fill="url(#linear-gradient)"/>
        <path id="Path_5255" data-name="Path 5255" d="M945.376,513.616a.5.5,0,0,1-.092.008.411.411,0,0,1-.39-.331.4.4,0,0,1,.061-.308.409.409,0,0,1,.257-.174l4.2-.834a.4.4,0,0,1,.089-.008.413.413,0,0,1,.394.331.414.414,0,0,1-.318.482Z" transform="translate(-891.471 -488.974)" stroke="#77d6f8" stroke-width="1" fill="url(#linear-gradient)"/>
        <path id="Path_5256" data-name="Path 5256" d="M899.894,428.06a.41.41,0,0,1-.365-.7l2.98-2.835a.406.406,0,0,1,.2-.1h0a.419.419,0,0,1,.093-.009.4.4,0,0,1,.289.126.413.413,0,0,1-.013.582l-2.981,2.834a.4.4,0,0,1-.2.1Z" transform="translate(-853.927 -416.7)" stroke="#77d6f8" stroke-width="1" fill="url(#linear-gradient)"/>
        <path id="Path_5257" data-name="Path 5257" d="M758.126,756.044c-.313-.218-.613-.452-.91-.689l-.088,8.293-18.951-.345a4.552,4.552,0,0,1-.069,1l19,.346-.057,6.6a1.894,1.894,0,0,1-1.507,1.807,1.839,1.839,0,0,1-.4.036l-16.891-.307a1.879,1.879,0,0,1-1.844-1.912l.008-.876a10.057,10.057,0,0,1-1.008.669l0,.189a2.845,2.845,0,0,0,.812,2.048,2.94,2.94,0,0,0,2.07.885l.687.014.231.647a8.009,8.009,0,0,0,7.362,5.293,7.9,7.9,0,0,0,1.7-.154l.053-.011a7.953,7.953,0,0,0,5.8-4.855l.253-.642.753.014a2.926,2.926,0,0,0,.639-.06h0a2.9,2.9,0,0,0,2.293-2.768l.159-15.167C758.184,756.083,758.155,756.065,758.126,756.044Zm-5.564,19.523a6.852,6.852,0,0,1-4.4,3.028l-.041.009a6.993,6.993,0,0,1-7.38-3.246l-.928-1.539,13.712.249Z" transform="translate(-718.553 -689.878)" stroke="#77d6f8" stroke-width="1" fill="url(#linear-gradient)"/>
        <path id="Path_5258" data-name="Path 5258" d="M747.573,554.49a.464.464,0,0,0-.35-.164.41.41,0,0,0-.092.009h-.007a.457.457,0,0,0-.2.1l-4.707,3.957-.095.059-.023.013a.309.309,0,0,0-.056.037c-.129.108-.257.23-.438.4l-.01.009-1.137.956-6.826-5.678-.059-.04-.517.009-.027.017-7.053,5.448-7.492-5.733a.462.462,0,0,0-.271-.1.478.478,0,0,0-.1.01h0a.466.466,0,0,0-.276.172.463.463,0,0,0,.087.648l6.342,4.854.1.108c2.2,2.661,3.757,7.566,4.5,14.185.446,4,.519,10.923.5,12.773l-.01,1-3.594-.065c-.1.329-.172.663-.244,1l16.885.307c-.443-.356-.886-.712-1.362-1.028l-5.211-.095.027-1c.054-1.845.2-8.755.789-12.724.9-6.069,2.448-10.7,4.488-13.4l.072-.09,6.314-5.31a.452.452,0,0,0,.162-.316A.458.458,0,0,0,747.573,554.49Zm-8.283,6.65c-3.883,6.641-4.432,22.06-4.518,25.537l-.025.987-4.305-.107.009-.987c.038-3.412-.149-18.636-3.674-25.453l-.38-.736,6.915-5.253,6.405,5.285Z" transform="translate(-703.974 -523.502)" stroke="#77d6f8" stroke-width="1" fill="url(#linear-gradient)"/>
        <path id="Path_5259" data-name="Path 5259" d="M717.472,442.749a21.525,21.525,0,0,0-15.019-6.705l-.26-.007a21.521,21.521,0,0,0-4.633.42l-.126.026a21.708,21.708,0,0,0-10.615,5.645,21.543,21.543,0,0,0-3.161,27.432q.168.255.331.517c.424.079,1.539.142,1.967.158-.247-.418-.5-.827-.761-1.224a20.771,20.771,0,0,1,12.565-31.542l4.658-.423a20.664,20.664,0,0,1,16.2,32.643,33.013,33.013,0,0,0-3,5.244c.139.116.276.234.41.356.118.107.23.211.338.305a33.639,33.639,0,0,1,3.071-5.322,21.668,21.668,0,0,0-1.965-27.521Z" transform="translate(-672.925 -426.292)" stroke="#77d6f8" stroke-width="1" fill="url(#linear-gradient)"/>
      </g>
    </g>
    <g id="Group_10800" data-name="Group 10800" transform="translate(-359 6)" opacity="0.4">
      <g id="Group_10695" data-name="Group 10695" transform="translate(903.154 875)">
        <path id="Path_5107" data-name="Path 5107" d="M607.172,165.283a6.183,6.183,0,0,1-2.173-.551c-.193-.075-.38-.148-.558-.209a2.589,2.589,0,0,1-1.8-3.464c.044-.131.1-.273.164-.421a2.478,2.478,0,0,0,.247-.837c-.013-.3-.3-.557-.743-.913-.158-.128-.322-.261-.469-.4a.479.479,0,0,0-.359-.153,2.874,2.874,0,0,0-1.127.435c-.135.073-.266.143-.39.2a2.152,2.152,0,0,1-.947.222h0a3.057,3.057,0,0,1-2.251-1.215,5.26,5.26,0,0,1-1.357-3.7,2.387,2.387,0,0,1,1.725-1.966,3.278,3.278,0,0,0,.82-.456l.057-.049.067-.033c.142-.07.334-.482.293-1.146a1.564,1.564,0,0,0-.487-1.23l-.268-.091c-1.156-.389-2.9-.976-2.7-2.94a7.569,7.569,0,0,1,.6-2.02c.1-.26.2-.5.282-.739a2.206,2.206,0,0,1,2.212-1.629,6.7,6.7,0,0,1,2.1.465.333.333,0,0,0,.107.015,2.27,2.27,0,0,0,1.521-1.04c.08-.127.253-.447.145-.668l-.034-.069-.015-.075a3.263,3.263,0,0,0-.363-.866,2.384,2.384,0,0,1-.141-2.607,4.536,4.536,0,0,1,2.287-1.606c.206-.088.4-.171.568-.253a3.284,3.284,0,0,1,1.438-.36,2.489,2.489,0,0,1,2.285,1.533c.552,1.133.68,1.277,1.653,1.277q.14,0,.3-.006c.824-.032.9-.275,1.137-1a4.715,4.715,0,0,1,.567-1.265,2.222,2.222,0,0,1,1.935-1.043,6.038,6.038,0,0,1,1.982.467c.111.04.221.08.328.117a3.822,3.822,0,0,1,2.3,1.655,2.312,2.312,0,0,1,.048,1.821c-.037.108-.075.212-.111.313-.361,1-.429,1.289.209,1.83s.928.62,1.137.62a3.682,3.682,0,0,0,1.33-.489,2.549,2.549,0,0,1,1.116-.27,2.737,2.737,0,0,1,2.387,1.712c.081.166.18.347.284.539a4,4,0,0,1,.711,3.146,2.511,2.511,0,0,1-1.65,1.536,2.913,2.913,0,0,0-.781.425l-.058.05-.069.033c-.22.107-.343.494-.314.986a1.8,1.8,0,0,0,.666,1.442,4.332,4.332,0,0,1,2.644,1.758,2.236,2.236,0,0,1,.058,1.734,9.307,9.307,0,0,1-1.074,2.863,2.223,2.223,0,0,1-1.933,1.045,5.981,5.981,0,0,1-1.935-.448l-.3-.1a.393.393,0,0,0-.13-.021,1.682,1.682,0,0,0-1.13.87,1.355,1.355,0,0,0-.259,1.1c.039.081.08.163.12.244.483.975,1.144,2.31.057,3.553a5.745,5.745,0,0,1-2.186,1.315c-.25.1-.486.2-.688.3a2.518,2.518,0,0,1-1.1.27,2.791,2.791,0,0,1-2.422-1.8,1.881,1.881,0,0,0-1.6-1.23,2.187,2.187,0,0,0-.945.245c-.279.137-.406.495-.58,1.067a3.206,3.206,0,0,1-.856,1.6A2.342,2.342,0,0,1,607.172,165.283Zm-5.69-8.145a1.659,1.659,0,0,1,1.192.492c.107.105.243.215.386.331a2.511,2.511,0,0,1,1.184,1.788,3.246,3.246,0,0,1-.336,1.342c-.051.123-.1.242-.138.352a1.418,1.418,0,0,0,1.059,1.952c.192.066.394.144.6.225a5.252,5.252,0,0,0,1.74.47,1.154,1.154,0,0,0,.8-.282,2.3,2.3,0,0,0,.5-1.043,2.612,2.612,0,0,1,1.2-1.79,3.362,3.362,0,0,1,1.467-.366,2.983,2.983,0,0,1,2.674,1.9c.165.339.627,1.128,1.351,1.128a1.344,1.344,0,0,0,.584-.15c.234-.114.485-.218.751-.329a4.962,4.962,0,0,0,1.744-1c.538-.615.264-1.253-.226-2.243-.042-.085-.084-.169-.124-.253a2.388,2.388,0,0,1,.32-2.256,2.773,2.773,0,0,1,2.14-1.43,1.575,1.575,0,0,1,.518.086l.306.107a5.052,5.052,0,0,0,1.537.38,1.04,1.04,0,0,0,.944-.518,8.107,8.107,0,0,0,.9-2.477l.02-.072a1.1,1.1,0,0,0,.01-.859c-.282-.578-1.293-.925-1.961-1.154a2.788,2.788,0,0,1-1.467-2.5,2.125,2.125,0,0,1,.912-2.091,4.093,4.093,0,0,1,1.037-.571c.554-.234.827-.367.987-.827.216-.63-.234-1.457-.631-2.187-.111-.2-.216-.4-.309-.588-.152-.314-.585-1.042-1.315-1.042a1.371,1.371,0,0,0-.6.151,4.373,4.373,0,0,1-1.85.609,2.946,2.946,0,0,1-1.907-.9c-1.3-1.1-.922-2.138-.56-3.143.034-.1.07-.2.106-.3a1.157,1.157,0,0,0,.007-.91,2.683,2.683,0,0,0-1.618-1.049l-.344-.122a5.107,5.107,0,0,0-1.578-.4,1.041,1.041,0,0,0-.947.518,3.713,3.713,0,0,0-.421.966,2.141,2.141,0,0,1-2.225,1.818c-.122,0-.237.007-.345.007-1.607,0-2.064-.593-2.724-1.947a1.322,1.322,0,0,0-1.213-.864,2.108,2.108,0,0,0-.915.239c-.194.095-.4.184-.622.278a3.7,3.7,0,0,0-1.722,1.1c-.306.53-.172.828.16,1.452a4.459,4.459,0,0,1,.465,1.122,1.877,1.877,0,0,1-.239,1.748,3.371,3.371,0,0,1-2.532,1.6h0a1.51,1.51,0,0,1-.5-.08,5.9,5.9,0,0,0-1.712-.4,1.029,1.029,0,0,0-1.084.825c-.089.262-.2.532-.3.795a6.732,6.732,0,0,0-.52,1.7c-.1.949.651,1.271,1.9,1.69l.277.094a2.5,2.5,0,0,1,1.288,2.283,2.337,2.337,0,0,1-.887,2.252,4.463,4.463,0,0,1-1.06.6c-.648.286-.938.437-1.025,1.042a4.127,4.127,0,0,0,1.077,2.75,1.964,1.964,0,0,0,1.351.805h0a.952.952,0,0,0,.425-.1c.109-.053.225-.116.345-.181A3.724,3.724,0,0,1,601.481,157.138Zm8.937-1.251a6.046,6.046,0,0,1-2.7-11.486,5.9,5.9,0,0,1,2.607-.6,6.12,6.12,0,0,1,5.489,3.392,6.111,6.111,0,0,1-2.795,8.1A5.91,5.91,0,0,1,610.419,155.887ZM610.326,145a4.72,4.72,0,0,0-2.085.478,4.854,4.854,0,0,0,2.177,9.222,4.724,4.724,0,0,0,2.081-.475,4.919,4.919,0,0,0,2.245-6.5A4.922,4.922,0,0,0,610.326,145Z" transform="translate(-594.9 -134.415)" fill="#77d7f8"/>
      </g>
      <g id="Group_10696" data-name="Group 10696" transform="translate(904.931 906.05)">
        <path id="Path_5108" data-name="Path 5108" d="M611.751,299.361a4.4,4.4,0,0,1-1.566-.392c-.131-.051-.258-.1-.378-.142a1.959,1.959,0,0,1-1.356-2.625c.032-.093.073-.195.117-.3a1.733,1.733,0,0,0,.157-.5c-.006-.14-.239-.328-.445-.495-.112-.091-.229-.185-.336-.29a.145.145,0,0,0-.119-.053,1.95,1.95,0,0,0-.69.278c-.1.052-.188.1-.275.144a1.667,1.667,0,0,1-.735.172h0a2.285,2.285,0,0,1-1.692-.9,3.769,3.769,0,0,1-.98-2.7,1.845,1.845,0,0,1,1.3-1.5,2.13,2.13,0,0,0,.521-.286l.057-.049.068-.033a1.084,1.084,0,0,0,.1-.633,1.1,1.1,0,0,0-.225-.673l-.17-.056c-.8-.27-2.142-.721-1.988-2.222a5.447,5.447,0,0,1,.426-1.444c.071-.177.138-.344.191-.5a1.713,1.713,0,0,1,1.7-1.249,4.768,4.768,0,0,1,1.51.331,1.4,1.4,0,0,0,.906-.631c.094-.149.105-.252.091-.282l-.034-.069-.015-.075a2.123,2.123,0,0,0-.232-.547,1.842,1.842,0,0,1-.094-1.978,3.264,3.264,0,0,1,1.664-1.185c.137-.059.268-.114.385-.171a2.452,2.452,0,0,1,1.074-.267,1.917,1.917,0,0,1,1.742,1.162c.365.748.4.777.974.777.063,0,.129,0,.2,0,.44-.017.46-.079.616-.56a3.473,3.473,0,0,1,.414-.919,1.73,1.73,0,0,1,1.488-.8,4.3,4.3,0,0,1,1.429.333l.225.08a2.8,2.8,0,0,1,1.694,1.235,1.773,1.773,0,0,1,.042,1.4c-.026.075-.052.147-.077.217-.245.68-.26.764.09,1.06.4.34.567.384.665.384a2.54,2.54,0,0,0,.837-.319,1.946,1.946,0,0,1,.851-.2,2.068,2.068,0,0,1,1.813,1.285c.056.116.123.238.192.365a2.941,2.941,0,0,1,.5,2.319,1.911,1.911,0,0,1-1.241,1.17,1.855,1.855,0,0,0-.491.263l-.058.05-.069.034c-.04.019-.124.163-.114.463a1.187,1.187,0,0,0,.338.871A3.128,3.128,0,0,1,624.672,290a1.718,1.718,0,0,1,.053,1.326,6.578,6.578,0,0,1-.766,2.029,1.73,1.73,0,0,1-1.487.8,4.268,4.268,0,0,1-1.4-.319l-.2-.071a.081.081,0,0,0-.03-.005,1.023,1.023,0,0,0-.623.514.794.794,0,0,0-.169.582l.082.167a2.222,2.222,0,0,1,.013,2.656,4.1,4.1,0,0,1-1.576.955c-.17.071-.33.138-.465.2a1.918,1.918,0,0,1-.843.2,2.1,2.1,0,0,1-1.838-1.344,1.129,1.129,0,0,0-.939-.745,1.328,1.328,0,0,0-.572.151c-.134.066-.217.337-.3.624a2.392,2.392,0,0,1-.646,1.187A1.794,1.794,0,0,1,611.751,299.361Zm-3.926-5.989a1.34,1.34,0,0,1,.952.392c.068.067.158.14.253.217a1.905,1.905,0,0,1,.886,1.369,2.416,2.416,0,0,1-.246,1c-.033.081-.066.159-.091.232-.069.2-.277.806.616,1.113.135.046.276.1.422.158a3.508,3.508,0,0,0,1.134.311.612.612,0,0,0,.431-.149,1.5,1.5,0,0,0,.287-.634,1.948,1.948,0,0,1,.922-1.348,2.5,2.5,0,0,1,1.094-.271,2.261,2.261,0,0,1,2.011,1.415c.077.159.36.674.766.674a.745.745,0,0,0,.322-.085c.166-.081.342-.154.529-.231a3.333,3.333,0,0,0,1.135-.638c.266-.305.192-.589-.182-1.345l-.086-.176a1.827,1.827,0,0,1,.231-1.734,2.1,2.1,0,0,1,1.634-1.074,1.266,1.266,0,0,1,.418.07l.213.074a3.374,3.374,0,0,0,1,.251.536.536,0,0,0,.5-.276,5.406,5.406,0,0,0,.6-1.643l.02-.072a.546.546,0,0,0,.015-.452c-.161-.33-.841-.563-1.247-.7a2.106,2.106,0,0,1-1.137-1.888,1.648,1.648,0,0,1,.71-1.607,3.042,3.042,0,0,1,.747-.411c.364-.154.494-.219.578-.461.123-.358-.167-.89-.423-1.36-.078-.144-.153-.282-.217-.414s-.331-.615-.741-.615a.764.764,0,0,0-.331.085,3.19,3.19,0,0,1-1.357.438,2.264,2.264,0,0,1-1.435-.666,1.84,1.84,0,0,1-.441-2.373c.024-.066.048-.134.073-.2a.585.585,0,0,0,.013-.486,1.733,1.733,0,0,0-1.01-.63l-.241-.086a3.415,3.415,0,0,0-1.025-.263.538.538,0,0,0-.5.276,2.392,2.392,0,0,0-.268.62,1.665,1.665,0,0,1-1.7,1.382q-.13,0-.246,0c-1.249,0-1.606-.546-2.045-1.447-.24-.492-.564-.492-.671-.492a1.292,1.292,0,0,0-.551.146c-.133.065-.282.129-.439.2a2.519,2.519,0,0,0-1.1.684c-.162.281-.111.4.113.823a3.264,3.264,0,0,1,.334.8,1.476,1.476,0,0,1-.185,1.361,2.54,2.54,0,0,1-1.9,1.191,1.235,1.235,0,0,1-.4-.065,3.941,3.941,0,0,0-1.121-.266c-.266,0-.445.073-.574.445-.063.184-.139.374-.212.557a4.53,4.53,0,0,0-.346,1.121c-.048.475.253.659,1.182.972l.193.065A1.875,1.875,0,0,1,606.685,289a1.771,1.771,0,0,1-.692,1.719,3.267,3.267,0,0,1-.761.426c-.437.193-.553.256-.6.576a2.669,2.669,0,0,0,.7,1.75,1.2,1.2,0,0,0,.792.492h0a.475.475,0,0,0,.213-.052c.073-.035.151-.078.231-.121A2.71,2.71,0,0,1,607.825,293.372Zm6.167-.493a4.356,4.356,0,0,1-1.943-8.276,4.254,4.254,0,0,1,1.879-.431,4.409,4.409,0,0,1,3.954,2.444,4.4,4.4,0,0,1-2.014,5.833A4.26,4.26,0,0,1,613.991,292.879Zm-.063-7.515a3.076,3.076,0,0,0-1.358.311,3.164,3.164,0,0,0,1.421,6.012,3.076,3.076,0,0,0,1.355-.31,3.209,3.209,0,0,0,1.464-4.24A3.211,3.211,0,0,0,613.928,285.363Z" transform="translate(-603.099 -277.693)" fill="#77d7f8"/>
      </g>
      <g id="Group_10697" data-name="Group 10697" transform="translate(871.914 924.082)">
        <path id="Path_5109" data-name="Path 5109" d="M527.633,369.715a1.794,1.794,0,0,1-2.033-2.252,1.913,1.913,0,0,1-1.367-1.023,2.069,2.069,0,0,1,.095-1.664,1.745,1.745,0,0,1-.931-1.195,2.29,2.29,0,0,1,.863-1.908l.151-.127,10.909-.642-7.12,8.784-.26.017C527.832,369.712,527.73,369.715,527.633,369.715Zm-2.735-7c-.171.187-.362.472-.327.665s.332.4.8.572l.75.274-.475.641c-.156.214-.455.79-.318,1.095.1.223.5.384,1.1.442l.836.081-.352.762a1.363,1.363,0,0,0-.084,1.031c.136.211.541.248.787.251l5.083-6.271Z" transform="translate(-507.635 -360.904)" fill="#77d7f8"/>
        <path id="Path_5110" data-name="Path 5110" d="M455.932,380.986l-.216-.037c-5.793-1-4.931-6.959-4.922-7.019l.044-.279,16.612-9.761a.6.6,0,1,1,.6,1.028l-16.111,9.466c-.08,1.021-.07,4.56,3.766,5.351l15-8.863a.6.6,0,1,1,.606,1.026Z" transform="translate(-450.744 -363.178)" fill="#77d7f8"/>
        <path id="Path_5111" data-name="Path 5111" d="M471.068,406.236a.593.593,0,0,1-.106-.01c-2.288-.412-3.812-1.344-4.527-2.771a5.468,5.468,0,0,1,.128-4.477.6.6,0,0,1,1.067.531,4.318,4.318,0,0,0-.126,3.418c.54,1.069,1.774,1.784,3.669,2.126a.6.6,0,0,1-.1,1.183Z" transform="translate(-462.688 -390.469)" fill="#77d7f8"/>
        <path id="Path_5112" data-name="Path 5112" d="M469.113,391.022a.6.6,0,0,1-.3-1.111l12.684-7.379a.6.6,0,1,1,.6,1.03l-12.684,7.38A.593.593,0,0,1,469.113,391.022Z" transform="translate(-464.665 -377.781)" fill="#77d7f8"/>
        <path id="Path_5113" data-name="Path 5113" d="M559.046,363.451a3.433,3.433,0,0,0,1.3,2.164c.215-.531,1.031-1.3,1.235-1.806-.19-.252-.5-.264-.56-.56A12.856,12.856,0,0,1,559.046,363.451Z" transform="translate(-535.576 -362.741)" fill="#77d7f8"/>
      </g>
      <g id="Group_10706" data-name="Group 10706" transform="translate(818.755 891.524)">
        <path id="Path_5114" data-name="Path 5114" d="M271.466,1044.7q-.538.259-1.085.5,2.136,4.086,4.583,8.023l1.253-.243Q273.672,1048.921,271.466,1044.7Z" transform="translate(-256.307 -863.956)" fill="#77d7f8"/>
        <path id="Path_5115" data-name="Path 5115" d="M220.973,870.82a122.308,122.308,0,0,1-11.034-33.346q-1.1-6.144-1.574-12.3c-.394.066-.788.13-1.181.193q.482,6.158,1.582,12.315a123.5,123.5,0,0,0,11.125,33.631Q220.435,871.077,220.973,870.82Z" transform="translate(-206.805 -692.006)" fill="#77d7f8"/>
        <path id="Path_5116" data-name="Path 5116" d="M206.85,789.029q-.216-3.615-.219-7.226-.6.01-1.192.013,0,3.7.229,7.408Q206.259,789.128,206.85,789.029Z" transform="translate(-205.439 -658.032)" fill="#77d7f8"/>
        <path id="Path_5117" data-name="Path 5117" d="M572.105,1269.4a.6.6,0,0,0-.758-.368,124.035,124.035,0,0,1-18.694,4.87,122.233,122.233,0,0,1-88.811-18.145c-.092.039-.186.073-.278.11-.183.258-.372.511-.568.758a123.418,123.418,0,0,0,89.867,18.45,125.25,125.25,0,0,0,18.875-4.917A.6.6,0,0,0,572.105,1269.4Z" transform="translate(-407.181 -1029.277)" fill="#77d7f8"/>
        <path id="Path_5118" data-name="Path 5118" d="M279.777,476.8q-2.084,3.29-3.952,6.685c.354.181.71.358,1.065.537q1.836-3.338,3.887-6.573Q280.276,477.126,279.777,476.8Z" transform="translate(-260.572 -419.125)" fill="#77d7f8"/>
        <path id="Path_5119" data-name="Path 5119" d="M305.138,431.856q-1.951,2.519-3.784,5.147-.958,1.375-1.876,2.771.5.328,1,.65.908-1.38,1.855-2.739,1.815-2.605,3.75-5.1Q305.6,432.226,305.138,431.856Z" transform="translate(-279.098 -383.922)" fill="#77d7f8"/>
        <path id="Path_5120" data-name="Path 5120" d="M338.525,388.153q-3.555,3.743-6.807,7.789.467.37.946.726,3.253-4.052,6.821-7.794Q339,388.522,338.525,388.153Z" transform="translate(-304.352 -349.69)" fill="#77d7f8"/>
        <path id="Path_5121" data-name="Path 5121" d="M420.8,244.548a123.446,123.446,0,0,0-44.925,28.3q.469.378.956.733a122.222,122.222,0,0,1,44.361-27.909Q420.99,245.114,420.8,244.548Z" transform="translate(-338.942 -237.205)" fill="#77d7f8"/>
        <path id="Path_5122" data-name="Path 5122" d="M750.587,210.8c-.027.4-.042.8-.04,1.194a121.788,121.788,0,0,1,12.409.032q.108-.591.222-1.18A122.863,122.863,0,0,0,750.587,210.8Z" transform="translate(-632.417 -210.665)" fill="#77d7f8"/>
        <path id="Path_5123" data-name="Path 5123" d="M830.216,213.149c-.061.394-.122.787-.187,1.18q4.983.467,9.934,1.345.146-.579.292-1.159Q835.254,213.623,830.216,213.149Z" transform="translate(-694.675 -212.611)" fill="#77d7f8"/>
        <path id="Path_5124" data-name="Path 5124" d="M889.506,222.04q-1.773-.4-3.552-.75-.144.579-.289,1.158,1.791.351,3.577.754,3.675.835,7.273,1.888c.157-.366.293-.74.417-1.121Q893.259,222.893,889.506,222.04Z" transform="translate(-738.254 -218.987)" fill="#77d7f8"/>
        <path id="Path_5125" data-name="Path 5125" d="M945.7,236.528c-.122.38-.255.754-.405,1.121q2.729.85,5.41,1.824c.084-.383.177-.776.294-1.162Q948.372,237.361,945.7,236.528Z" transform="translate(-784.961 -230.923)" fill="#77d7f8"/>
        <path id="Path_5126" data-name="Path 5126" d="M1137.97,343.858q-1.992-1.779-4.063-3.478c-.521.087-1.041.175-1.561.267q2.346,1.887,4.587,3.885Q1137.453,344.2,1137.97,343.858Z" transform="translate(-931.477 -312.27)" fill="#77d7f8"/>
        <path id="Path_5127" data-name="Path 5127" d="M1212.346,418.319a123.5,123.5,0,0,0-11.014-14.468q-.574.254-1.152.5a122.293,122.293,0,0,1,20.546,31.931q.617-.086,1.234-.153A122.955,122.955,0,0,0,1212.346,418.319Z" transform="translate(-984.611 -361.986)" fill="#77d7f8"/>
        <path id="Path_5128" data-name="Path 5128" d="M1169.233,370.412q-3.381-3.681-7.055-7.086c-.342.227-.683.454-1.027.677q3.6,3.314,6.914,6.9Q1168.652,370.665,1169.233,370.412Z" transform="translate(-954.039 -330.243)" fill="#77d7f8"/>
        <path id="Path_5129" data-name="Path 5129" d="M1338.272,707.641q.281,2.127.488,4.254.6.015,1.2.017-.215-2.245-.513-4.489Z" transform="translate(-1092.776 -599.771)" fill="#77d7f8"/>
        <path id="Path_5130" data-name="Path 5130" d="M1342.965,746.495q-.043-4.209-.371-8.428-.6,0-1.2-.01.328,4.144.374,8.283C1342.164,746.407,1342.563,746.458,1342.965,746.495Z" transform="translate(-1095.224 -623.766)" fill="#77d7f8"/>
        <path id="Path_5131" data-name="Path 5131" d="M1272.987,844.457a122.3,122.3,0,0,1-18.374,52.274.6.6,0,0,0,1.006.639,123.5,123.5,0,0,0,18.56-52.832C1273.782,844.517,1273.385,844.489,1272.987,844.457Z" transform="translate(-1027.175 -707.109)" fill="#77d7f8"/>
        <path id="Path_5132" data-name="Path 5132" d="M1341.632,795.684a.935.935,0,0,1,.727.38q.411-4.806.451-9.65-.6-.044-1.192-.125-.029,4.706-.423,9.381C1341.341,795.678,1341.486,795.684,1341.632,795.684Z" transform="translate(-1095.066 -661.546)" fill="#77d7f8"/>
        <g id="Group_10698" data-name="Group 10698" transform="translate(109.803 10.191)">
          <path id="Path_5133" data-name="Path 5133" d="M876.08,267.582c-1.412-.323-2.846-.623-4.264-.891a.6.6,0,1,0-.221,1.171c1.4.265,2.822.562,4.219.881a.6.6,0,0,0,.266-1.162Z" transform="translate(-836.656 -264.733)" fill="#77d7f8"/>
          <path id="Path_5134" data-name="Path 5134" d="M836.531,261.343c-1.432-.213-2.886-.4-4.322-.559a.6.6,0,1,0-.13,1.185c1.422.156,2.86.342,4.277.554a.6.6,0,0,0,.176-1.179Z" transform="translate(-805.667 -260.111)" fill="#77d7f8"/>
          <path id="Path_5135" data-name="Path 5135" d="M915.007,276.844c-1.38-.43-2.786-.839-4.18-1.216a.6.6,0,0,0-.311,1.151c1.38.372,2.771.777,4.136,1.2a.6.6,0,0,0,.355-1.138Z" transform="translate(-867.177 -271.725)" fill="#77d7f8"/>
          <path id="Path_5136" data-name="Path 5136" d="M796.715,258.18c-1.442-.1-2.9-.178-4.34-.224a.6.6,0,1,0-.039,1.191c1.423.046,2.867.121,4.294.222a.6.6,0,0,0,.084-1.189Z" transform="translate(-774.502 -257.898)" fill="#77d7f8"/>
          <path id="Path_5137" data-name="Path 5137" d="M716.97,259.46c-1.435.118-2.889.266-4.323.44a.6.6,0,1,0,.143,1.183c1.419-.172,2.858-.318,4.278-.436l.056-.007a.6.6,0,0,0-.154-1.18Z" transform="translate(-712.123 -259.075)" fill="#77d7f8"/>
          <path id="Path_5138" data-name="Path 5138" d="M756.788,257.691c-1.441.009-2.9.046-4.344.11a.6.6,0,1,0,.053,1.19c1.426-.063,2.873-.1,4.3-.108a.581.581,0,0,0,.1-.009.6.6,0,0,0-.109-1.183Z" transform="translate(-743.26 -257.691)" fill="#77d7f8"/>
          <path id="Path_5139" data-name="Path 5139" d="M1242.314,549.364a.6.6,0,0,0,.647.34.58.58,0,0,0,.143-.045.6.6,0,0,0,.3-.789c-.6-1.311-1.231-2.63-1.88-3.918a.6.6,0,1,0-1.065.536C1241.1,546.762,1241.722,548.066,1242.314,549.364Z" transform="translate(-1125.91 -482.442)" fill="#77d7f8"/>
          <path id="Path_5140" data-name="Path 5140" d="M1178.264,449.536a.6.6,0,0,0,.366-.952c-.881-1.138-1.8-2.275-2.72-3.379a.6.6,0,0,0-.914.765c.914,1.092,1.82,2.218,2.691,3.344A.6.6,0,0,0,1178.264,449.536Z" transform="translate(-1074.578 -404.401)" fill="#77d7f8"/>
          <path id="Path_5141" data-name="Path 5141" d="M1223.956,514.642a.6.6,0,0,0,.417-.875c-.7-1.26-1.428-2.525-2.175-3.762a.6.6,0,1,0-1.02.616c.739,1.224,1.464,2.476,2.153,3.722A.6.6,0,0,0,1223.956,514.642Z" transform="translate(-1110.793 -455.101)" fill="#77d7f8"/>
          <path id="Path_5142" data-name="Path 5142" d="M1294.291,815.271a.6.6,0,0,0-.635.554c-.1,1.424-.222,2.866-.374,4.286a.6.6,0,0,0,1.185.126c.153-1.435.28-2.892.378-4.332A.6.6,0,0,0,1294.291,815.271Z" transform="translate(-1167.338 -694.437)" fill="#77d7f8"/>
          <path id="Path_5143" data-name="Path 5143" d="M1296.615,775.377a.6.6,0,0,0-.591.6c.013,1.428,0,2.875-.043,4.3a.6.6,0,0,0,.578.613.618.618,0,0,0,.124-.009.6.6,0,0,0,.49-.57c.042-1.442.057-2.9.044-4.348A.6.6,0,0,0,1296.615,775.377Z" transform="translate(-1169.454 -663.19)" fill="#77d7f8"/>
          <path id="Path_5144" data-name="Path 5144" d="M1089.281,362.936a.6.6,0,1,0-.717.952c1.139.858,2.277,1.749,3.385,2.651a.6.6,0,1,0,.752-.924C1091.583,364.7,1090.432,363.8,1089.281,362.936Z" transform="translate(-1006.8 -340.034)" fill="#77d7f8"/>
          <path id="Path_5145" data-name="Path 5145" d="M1202.363,481.218a.6.6,0,0,0,.393-.914c-.788-1.2-1.613-2.4-2.452-3.576a.6.6,0,1,0-.97.693c.83,1.162,1.646,2.352,2.426,3.538A.6.6,0,0,0,1202.363,481.218Z" transform="translate(-1093.664 -429.065)" fill="#77d7f8"/>
          <path id="Path_5146" data-name="Path 5146" d="M1151.8,419.771a.6.6,0,0,0,.337-.986c-.964-1.067-1.964-2.131-2.972-3.163a.6.6,0,1,0-.853.832c1,1.021,1.986,2.075,2.94,3.13A.594.594,0,0,0,1151.8,419.771Z" transform="translate(-1053.655 -381.255)" fill="#77d7f8"/>
          <path id="Path_5147" data-name="Path 5147" d="M1123.133,392.093a.6.6,0,0,0,.305-1.019c-1.044-.992-2.123-1.977-3.2-2.929a.6.6,0,1,0-.787.895c1.071.942,2.138,1.918,3.171,2.9A.6.6,0,0,0,1123.133,392.093Z" transform="translate(-1031.017 -359.758)" fill="#77d7f8"/>
          <path id="Path_5148" data-name="Path 5148" d="M1254.844,970.439a.6.6,0,0,0-.773.336c-.524,1.33-1.08,2.665-1.653,3.971a.6.6,0,0,0,1.091.479c.579-1.319,1.141-2.669,1.67-4.013A.6.6,0,0,0,1254.844,970.439Z" transform="translate(-1135.291 -815.947)" fill="#77d7f8"/>
        </g>
        <g id="Group_10699" data-name="Group 10699" transform="translate(10.193 16.948)">
          <path id="Path_5149" data-name="Path 5149" d="M382.6,517.02l-.019,0c-1.437.211-2.894.4-4.33.551a.6.6,0,1,1-.128-1.185c1.421-.153,2.863-.337,4.286-.545a.6.6,0,0,1,.192,1.176Zm-8.634.932a.531.531,0,0,1-.064.008c-1.447.1-2.914.174-4.361.219a.6.6,0,1,1-.037-1.191c1.431-.044,2.883-.117,4.315-.216a.6.6,0,0,1,.147,1.181Zm-8.681.268a.579.579,0,0,1-.11.009c-1.451-.011-2.919-.05-4.364-.117a.6.6,0,0,1,.055-1.191c1.431.066,2.883.105,4.319.116a.6.6,0,0,1,.1,1.182Zm-8.676-.4a.593.593,0,0,1-.156.007c-1.443-.123-2.9-.275-4.342-.454a.6.6,0,1,1,.147-1.183c1.424.177,2.869.328,4.3.45a.6.6,0,0,1,.055,1.18Zm-8.632-1.073a.6.6,0,0,1-.2,0c-1.433-.234-2.881-.5-4.306-.791a.6.6,0,1,1,.238-1.167c1.41.287,2.843.55,4.26.783a.6.6,0,0,1,.008,1.175Zm-8.531-1.74A.592.592,0,0,1,339.2,515c-1.412-.346-2.835-.723-4.229-1.122a.6.6,0,0,1,.328-1.146c1.379.395,2.787.768,4.184,1.11a.6.6,0,0,1-.037,1.166Zm-8.365-2.393a.6.6,0,0,1-.291-.021c-1.379-.452-2.767-.938-4.127-1.443a.6.6,0,1,1,.415-1.118c1.345.5,2.72.981,4.084,1.429a.6.6,0,0,1-.081,1.153Zm-8.153-3.029a.591.591,0,0,1-.333-.037c-1.34-.557-2.686-1.148-4-1.756a.6.6,0,1,1,.5-1.082c1.3.6,2.635,1.186,3.96,1.738a.6.6,0,0,1-.125,1.137Zm-7.891-3.644a.594.594,0,0,1-.375-.056c-1.29-.657-2.587-1.349-3.855-2.056a.6.6,0,0,1,.581-1.041c1.254.7,2.537,1.385,3.814,2.035a.6.6,0,0,1-.166,1.118Zm-7.587-4.236a.592.592,0,0,1-.415-.078c-1.237-.754-2.477-1.542-3.685-2.344a.6.6,0,1,1,.659-.993c1.2.793,2.422,1.573,3.646,2.319a.6.6,0,0,1-.206,1.1ZM270.642,465.53a.6.6,0,0,1-.609-.268c-.774-1.224-1.535-2.481-2.261-3.735a.6.6,0,0,1,1.031-.6c.719,1.242,1.471,2.485,2.237,3.7a.6.6,0,0,1-.4.905Zm-4.353-7.515a.6.6,0,0,1-.632-.309c-.677-1.281-1.339-2.593-1.965-3.9a.6.6,0,0,1,1.075-.516c.62,1.292,1.274,2.59,1.945,3.858a.6.6,0,0,1-.422.865Zm-3.759-7.829a.6.6,0,0,1-.651-.35c-.576-1.329-1.133-2.687-1.658-4.039a.6.6,0,0,1,1.111-.431c.519,1.337,1.071,2.682,1.641,4a.6.6,0,0,1-.443.824Zm-3.143-8.1a.6.6,0,0,1-.667-.393c-.471-1.368-.923-2.766-1.342-4.154a.6.6,0,0,1,1.141-.344c.415,1.374.862,2.757,1.328,4.111a.6.6,0,0,1-.369.758A.6.6,0,0,1,259.387,442.09Zm-2.51-8.313a.6.6,0,0,1-.681-.436c-.366-1.4-.709-2.83-1.021-4.245a.6.6,0,1,1,1.164-.257c.309,1.4.649,2.814,1.01,4.2a.6.6,0,0,1-.426.727Zm-1.87-8.481a.6.6,0,0,1-.691-.48l-.047-.262c-.24-1.344-.459-2.705-.65-4.048a.6.6,0,0,1,1.18-.168c.189,1.329.406,2.676.643,4l.047.26a.6.6,0,0,1-.48.693Zm-1.224-8.6-.044.006a.6.6,0,0,1-.654-.531c-.15-1.441-.274-2.9-.368-4.35a.6.6,0,1,1,1.189-.078c.094,1.431.216,2.879.364,4.305A.6.6,0,0,1,253.783,416.7Zm-.566-8.666a.6.6,0,0,1-.7-.571c-.039-1.447-.05-2.916-.033-4.366a.6.6,0,1,1,1.192.014c-.017,1.435-.005,2.889.033,4.32A.6.6,0,0,1,253.216,408.031Zm14.512-58.366a.6.6,0,0,1-.623-.879c.711-1.263,1.457-2.529,2.217-3.763a.6.6,0,1,1,1.015.624c-.752,1.222-1.49,2.475-2.194,3.724A.6.6,0,0,1,267.728,349.665Zm4.552-7.4a.6.6,0,0,1-.6-.918c.8-1.2,1.645-2.408,2.5-3.582a.6.6,0,0,1,.964.7c-.843,1.161-1.674,2.354-2.471,3.544A.593.593,0,0,1,272.28,342.266Zm5.1-7.029a.6.6,0,0,1-.574-.955c.9-1.14,1.825-2.278,2.762-3.38a.6.6,0,0,1,.909.772c-.927,1.091-1.846,2.216-2.733,3.344A.591.591,0,0,1,277.382,335.238ZM283,328.62a.6.6,0,0,1-.544-.989c.979-1.067,1.992-2.13,3.011-3.158a.6.6,0,0,1,.847.839c-1.008,1.017-2.01,2.069-2.98,3.125A.6.6,0,0,1,283,328.62Zm6.108-6.165a.6.6,0,0,1-.513-1.022c1.057-.989,2.148-1.97,3.242-2.917a.6.6,0,0,1,.78.9c-1.083.938-2.163,1.909-3.209,2.887A.593.593,0,0,1,289.11,322.455Zm6.559-5.677a.6.6,0,0,1-.478-1.052c1.129-.9,2.291-1.8,3.455-2.658a.6.6,0,1,1,.708.959c-1.152.851-2.3,1.736-3.419,2.63A.594.594,0,0,1,295.669,316.778Zm6.972-5.154a.6.6,0,0,1-.441-1.079c1.2-.814,2.423-1.616,3.648-2.383a.6.6,0,1,1,.633,1.01c-1.212.759-2.426,1.553-3.609,2.358A.6.6,0,0,1,302.642,311.623Zm7.344-4.6a.6.6,0,0,1-.4-1.1c1.254-.719,2.538-1.424,3.818-2.094a.6.6,0,1,1,.553,1.056c-1.266.663-2.537,1.36-3.777,2.072A.6.6,0,0,1,309.986,307.024ZM317.67,303a.6.6,0,0,1-.36-1.125c1.305-.62,2.643-1.224,3.974-1.8a.6.6,0,0,1,.469,1.1c-1.318.565-2.641,1.162-3.932,1.776A.6.6,0,0,1,317.67,303Z" transform="translate(-252.474 -297.614)" fill="#77d7f8"/>
          <path id="Path_5150" data-name="Path 5150" d="M587.976,290.807a.6.6,0,0,1-.318-1.144c.668-.256,1.355-.511,2.043-.759a.6.6,0,1,1,.4,1.121c-.68.245-1.36.5-2.02.751A.578.578,0,0,1,587.976,290.807Z" transform="translate(-514.721 -288.869)" fill="#77d7f8"/>
        </g>
        <g id="Group_10700" data-name="Group 10700" transform="translate(142.534 22.704)">
          <path id="Path_5151" data-name="Path 5151" d="M864.076,316.657a.59.59,0,0,1-.218,0l-.213-.041a.6.6,0,0,1,.225-1.171l.214.042a.6.6,0,0,1-.008,1.172Z" transform="translate(-863.161 -315.433)" fill="#77d7f8"/>
          <path id="Path_5152" data-name="Path 5152" d="M962.193,393.244a.6.6,0,0,1-.678-.424l-.119-.413a.6.6,0,0,1,1.145-.331l.12.419a.6.6,0,0,1-.41.736A.585.585,0,0,1,962.193,393.244Zm-1.692-5.376a.6.6,0,0,1-.667-.392l-.142-.407a.6.6,0,0,1,1.125-.394l.143.412a.6.6,0,0,1-.368.758A.59.59,0,0,1,960.5,387.868Zm-1.986-5.275a.6.6,0,0,1-.656-.361l-.164-.4a.6.6,0,0,1,1.1-.456l.166.4a.6.6,0,0,1-.448.812Zm-2.272-5.152a.6.6,0,0,1-.643-.332l-.185-.387a.6.6,0,1,1,1.074-.516q.094.2.187.392a.6.6,0,0,1-.434.843ZM937,349.846a.6.6,0,0,1-.531-.17l-.3-.308a.6.6,0,0,1,.849-.837l.305.31a.6.6,0,0,1-.32,1Zm-4.052-3.918a.6.6,0,0,1-.508-.148l-.318-.289a.6.6,0,1,1,.8-.883l.323.294a.6.6,0,0,1-.3,1.026Zm-4.26-3.691a.6.6,0,0,1-.483-.125l-.334-.273a.6.6,0,0,1,.752-.925l.338.275a.6.6,0,0,1-.272,1.048Zm-4.456-3.452a.592.592,0,0,1-.457-.106l-.348-.253a.6.6,0,0,1,.7-.965l.353.257a.6.6,0,0,1-.247,1.067Zm-4.64-3.2a.592.592,0,0,1-.429-.087l-.363-.234a.6.6,0,1,1,.646-1l.366.237a.6.6,0,0,1-.22,1.086Zm-25.435-11.969a.592.592,0,0,1-.283-.018l-.412-.127a.6.6,0,0,1,.35-1.14l.418.13a.6.6,0,0,1-.073,1.156Zm-5.43-1.53a.59.59,0,0,1-.25-.009l-.419-.1a.6.6,0,0,1,.287-1.157l.424.106a.6.6,0,0,1-.042,1.164Z" transform="translate(-882.304 -319.633)" fill="#77d7f8"/>
          <path id="Path_5153" data-name="Path 5153" d="M1235.358,674.486a.589.589,0,0,1-.683-.447l-.047-.209a.6.6,0,0,1,.446-.714.589.589,0,0,1,.715.447l.045.2a.6.6,0,0,1-.447.722Z" transform="translate(-1154.115 -595.589)" fill="#77d7f8"/>
        </g>
        <g id="Group_10701" data-name="Group 10701" transform="translate(110.085 21.7)">
          <path id="Path_5154" data-name="Path 5154" d="M714.586,311.981l-.031,0-.458.058a.6.6,0,0,1-.155-1.182l.464-.059a.6.6,0,0,1,.18,1.178Z" transform="translate(-713.424 -310.799)" fill="#77d7f8"/>
        </g>
        <g id="Group_10702" data-name="Group 10702" transform="translate(21.105 50.949)">
          <path id="Path_5155" data-name="Path 5155" d="M531.8,1185.713a.6.6,0,0,1-.411-.075l-.186-.113a.6.6,0,1,1,.615-1.021l.184.111a.6.6,0,0,1-.2,1.1Z" transform="translate(-481.486 -1024.346)" fill="#77d7f8"/>
          <path id="Path_5156" data-name="Path 5156" d="M348.576,604.232a.593.593,0,0,1-.437-.092l-.361-.244a.6.6,0,0,1,.67-.986l.356.241a.6.6,0,0,1-.228,1.081Zm-4.581-3.267a.593.593,0,0,1-.464-.111l-.346-.263a.6.6,0,1,1,.721-.949l.344.26a.6.6,0,0,1-.254,1.062Zm-23.145-24.371a.6.6,0,0,1-.6-.253l-.243-.361a.6.6,0,0,1,.991-.663l.24.356a.6.6,0,0,1-.388.921ZM310.4,556.713a.6.6,0,0,1-.659-.37l-.157-.4a.6.6,0,0,1,1.111-.431l.156.4a.6.6,0,0,1-.338.772A.6.6,0,0,1,310.4,556.713Zm-1.905-5.292a.6.6,0,0,1-.67-.4l-.134-.412a.6.6,0,0,1,1.134-.368l.133.408a.6.6,0,0,1-.38.752A.561.561,0,0,1,308.495,551.42Zm-4.965-38.83a.58.58,0,0,1-.144.008.6.6,0,0,1-.556-.633l.029-.437a.6.6,0,0,1,1.189.083l-.029.431A.6.6,0,0,1,303.529,512.59Zm.52-5.613a.577.577,0,0,1-.176,0,.6.6,0,0,1-.521-.662c.017-.145.035-.29.053-.434a.6.6,0,1,1,1.183.148q-.027.214-.053.428A.6.6,0,0,1,304.049,506.977Zm.83-5.574a.6.6,0,0,1-.692-.691q.038-.215.077-.43a.6.6,0,0,1,1.173.214c-.026.141-.051.283-.076.424A.6.6,0,0,1,304.879,501.4Zm1.137-5.518a.6.6,0,0,1-.685-.723q.05-.213.1-.425a.6.6,0,1,1,1.159.278q-.05.209-.1.419A.6.6,0,0,1,306.016,495.886Zm1.441-5.446a.589.589,0,0,1-.273-.015.6.6,0,0,1-.4-.74l.124-.418a.6.6,0,1,1,1.142.341l-.123.413A.6.6,0,0,1,307.457,490.44Zm1.739-5.356a.6.6,0,0,1-.666-.786l.147-.411a.6.6,0,1,1,1.121.4l-.145.406A.6.6,0,0,1,309.2,485.084Zm2.031-5.252a.6.6,0,0,1-.654-.816q.084-.2.17-.4a.6.6,0,0,1,1.1.466c-.056.131-.112.264-.167.4A.6.6,0,0,1,311.227,479.832Zm2.316-5.131a.6.6,0,0,1-.641-.847l.19-.391a.6.6,0,1,1,1.071.524l-.189.387A.594.594,0,0,1,313.542,474.7Zm19.4-27.445a.6.6,0,0,1-.529-1.005l.306-.309a.6.6,0,1,1,.844.841l-.3.3A.591.591,0,0,1,332.946,447.256Z" transform="translate(-302.828 -445.766)" fill="#77d7f8"/>
        </g>
        <g id="Group_10703" data-name="Group 10703" transform="translate(115.958 225.086)">
          <path id="Path_5157" data-name="Path 5157" d="M780.15,1250.5l-.042.006-.461.048a.6.6,0,1,1-.122-1.185l.457-.048a.6.6,0,0,1,.169,1.179Zm-5.975.467a.632.632,0,0,1-.077.009l-.464.022a.6.6,0,1,1-.051-1.191l.458-.021a.6.6,0,0,1,.135,1.182Zm-5.992.117a.645.645,0,0,1-.112.009l-.464-.006a.6.6,0,0,1,.017-1.192l.459.006a.6.6,0,0,1,.1,1.183Z" transform="translate(-761.279 -1249.318)" fill="#77d7f8"/>
          <path id="Path_5158" data-name="Path 5158" d="M741.443,1252.056a.577.577,0,0,1-.146.008l-.218-.015a.6.6,0,1,1,.086-1.189l.214.015a.6.6,0,0,1,.065,1.181Z" transform="translate(-740.526 -1250.524)" fill="#77d7f8"/>
        </g>
        <g id="Group_10704" data-name="Group 10704" transform="translate(48.866 57.511)">
          <path id="Path_5159" data-name="Path 5159" d="M431.682,782.91a.566.566,0,0,1-.662-.527c-.062-1.268-.091-2.552-.088-3.818a.563.563,0,1,1,1.127,0c0,1.247.026,2.512.086,3.76A.564.564,0,0,1,431.682,782.91Z" transform="translate(-430.932 -712.566)" fill="#77d7f8"/>
          <path id="Path_5160" data-name="Path 5160" d="M526.265,491.643a.563.563,0,0,1-.507-.942,75.1,75.1,0,0,1,5.887-5.553.563.563,0,0,1,.728.86,74.1,74.1,0,0,0-5.8,5.469A.558.558,0,0,1,526.265,491.643Zm12.246-10.357a.563.563,0,0,1-.415-1.022,74.669,74.669,0,0,1,6.943-4.154.563.563,0,1,1,.525,1,73.483,73.483,0,0,0-6.838,4.091A.561.561,0,0,1,538.511,481.286Z" transform="translate(-505.086 -476.046)" fill="#77d7f8"/>
        </g>
        <g id="Group_10705" data-name="Group 10705" transform="translate(52.38 145.793)">
          <path id="Path_5161" data-name="Path 5161" d="M522.361,974.472a.562.562,0,0,1-.2,0,74.552,74.552,0,0,1-7.485-1.789.563.563,0,1,1,.319-1.081,73.414,73.414,0,0,0,7.371,1.762.563.563,0,0,1,0,1.109Zm-51-34.39a.563.563,0,0,1-.575-.253,74.38,74.38,0,0,1-3.779-6.693.563.563,0,1,1,1.008-.5,73.292,73.292,0,0,0,3.722,6.591.564.564,0,0,1-.376.857Z" transform="translate(-462.658 -921.724)" fill="#77d7f8"/>
          <path id="Path_5162" data-name="Path 5162" d="M449.047,888.121a.564.564,0,0,1-.626-.357c-.443-1.183-.863-2.4-1.248-3.609a.563.563,0,0,1,1.074-.341c.379,1.193.792,2.389,1.229,3.554a.564.564,0,0,1-.33.726A.639.639,0,0,1,449.047,888.121Z" transform="translate(-447.147 -883.421)" fill="#77d7f8"/>
        </g>
      </g>
      <path id="Path_5163" data-name="Path 5163" d="M1213.556,864.1a3.446,3.446,0,0,1-.551-.044,3.373,3.373,0,0,1-2.812-2.938l-6.543-3.469a5.828,5.828,0,1,1-4.207-9.869,5.932,5.932,0,0,1,.947.076,5.812,5.812,0,0,1,2.556,1.09l8.263-5.469a3.761,3.761,0,0,1-.007-.481l-2.214-1.56a4.434,4.434,0,1,1,2.264-3.253l2.23,1.524a3.9,3.9,0,1,1-.119,7.043l-8.25,5.452a5.839,5.839,0,0,1,.1,2.341c-.005.032-.011.064-.016.1l6.662,3.143a3.387,3.387,0,1,1,1.7,6.317Zm-10.195-7.953,8,4.24,0,.354a2.185,2.185,0,0,0,1.835,2.139,2.267,2.267,0,0,0,.36.029,2.194,2.194,0,1,0-1.3-3.963l-.286.21-8.165-3.852.129-.481a4.766,4.766,0,0,0,.1-.469,4.572,4.572,0,0,0-.181-2.215l-.146-.434,9.623-6.358.325.2a2.715,2.715,0,0,0,1.014.383,2.75,2.75,0,0,0,.44.036,2.716,2.716,0,1,0-1.368-5.052l-.325.19-3.512-2.4.095-.4c.012-.051.026-.1.042-.148a.722.722,0,0,0,.024-.087,3.269,3.269,0,1,0-1.387,2.159l.341-.232,3.563,2.51-.172.375a2.767,2.767,0,0,0,.025.793l.061.38-9.634,6.378-.343-.3a4.626,4.626,0,0,0-2.318-1.1,4.685,4.685,0,0,0-.755-.061,4.635,4.635,0,0,0-.734,9.21,4.731,4.731,0,0,0,.751.061,4.621,4.621,0,0,0,3.594-1.716Z" transform="translate(-160.72 193.301)" fill="#77d7f8"/>
      <g id="Group_10707" data-name="Group 10707" transform="translate(1027.508 997.735)">
        <path id="Path_5164" data-name="Path 5164" d="M1180.189,722.123c-.252,0-.5-.023-.727-.043l-.119-.01c-.229-.021-.508-.033-.8-.046-1.369-.059-3.073-.133-3.952-1.129a2.239,2.239,0,0,1-.359-1.931c.015-.105.03-.21.04-.311.1-.973.169-1.927.219-2.834.056-1-.175-1.33-.247-1.406a.328.328,0,0,0-.267-.1,1.828,1.828,0,0,0-.788.244,3.005,3.005,0,0,1-1.359.325,3.1,3.1,0,0,1-2.676-1.54,3.183,3.183,0,0,1,.755-4.06,3.06,3.06,0,0,1,1.887-.668,3.436,3.436,0,0,1,1.279.31,1.866,1.866,0,0,0,.949.209c.795-.159.518-2,.369-2.993-.042-.279-.078-.52-.1-.724s-.044-.4-.071-.609c-.148-1.148-.4-3.058,1.578-3.472v0l.1-.015.063-.01h.006c.184-.029.43-.081.715-.141a13.916,13.916,0,0,1,2.7-.376,2.345,2.345,0,0,1,2.245,1,1.913,1.913,0,0,1-.125,1.973,3.222,3.222,0,0,0-.215.486,2.016,2.016,0,0,0,.314,1.793,1.9,1.9,0,0,0,1.5.735,1.817,1.817,0,0,0,1.147-.4,1.971,1.971,0,0,0,.718-1.281,2.228,2.228,0,0,0-.243-1.091,3.331,3.331,0,0,1-.324-1.49c.042-.649.42-1.741,2.478-1.741a13.527,13.527,0,0,1,2.193.244c.25.043.467.08.623.1l.259.026a3.114,3.114,0,0,1,2.208.85c.663.752.426,1.876.236,2.78-.049.234-.1.454-.116.623-.012.1-.029.22-.049.359-.094.66-.344,2.41.067,2.885a.208.208,0,0,0,.187.073,1.1,1.1,0,0,0,.343-.07,5.251,5.251,0,0,0,.55-.238,3.15,3.15,0,0,1,1.423-.4,2.605,2.605,0,0,1,.343.023,3.108,3.108,0,0,1,2.255,1.518,3.212,3.212,0,0,1-1.082,4.291,3.069,3.069,0,0,1-2.54.283c-.129-.043-.261-.094-.394-.145a2.614,2.614,0,0,0-.813-.227.481.481,0,0,0-.382.178c-.294.306-.2.968-.115,1.553.023.16.045.313.06.457.1,1.019.241,2.039.414,3.031a2.195,2.195,0,0,1-.346,1.77c-.677.891-1.982,1.021-3.134,1.135-.194.019-.382.038-.56.06-.119.015-.244.035-.373.056a6.159,6.159,0,0,1-1,.107,1.935,1.935,0,0,1-1.346-.453,1.9,1.9,0,0,1-.409-2.215,3.442,3.442,0,0,0,.14-.567,2.128,2.128,0,0,0-.512-1.66,1.806,1.806,0,0,0-1.362-.617,1.86,1.86,0,0,0-1.335.579,1.956,1.956,0,0,0-.56,1.376,2.3,2.3,0,0,0,.187.7,2.486,2.486,0,0,1,.206,1.517A1.777,1.777,0,0,1,1180.189,722.123Zm-6.216-9a1.519,1.519,0,0,1,1.133.471,3.03,3.03,0,0,1,.572,2.291c-.051.924-.127,1.895-.223,2.885-.011.118-.028.239-.046.362-.068.479-.1.785.072.974.544.617,2.028.681,3.111.728.31.013.6.026.858.05l.119.011c.208.019.423.038.62.038.637,0,.738-.2.8-.466a1.579,1.579,0,0,0-.168-.814,3.232,3.232,0,0,1-.26-1.111,3.14,3.14,0,0,1,.9-2.212,3.036,3.036,0,0,1,2.175-.941,2.99,2.99,0,0,1,2.267,1.016,3.321,3.321,0,0,1,.806,2.591,4.431,4.431,0,0,1-.183.775c-.182.6-.2.749.061.979a.768.768,0,0,0,.554.152,5.2,5.2,0,0,0,.8-.091c.148-.024.289-.047.422-.063.184-.023.383-.043.587-.063.865-.086,1.941-.193,2.3-.67a.986.986,0,0,0,.12-.844c-.177-1.02-.32-2.068-.426-3.115-.013-.127-.033-.264-.053-.407a2.924,2.924,0,0,1,.433-2.546,1.668,1.668,0,0,1,1.243-.546,3.484,3.484,0,0,1,1.243.307c.116.045.23.089.344.127a1.863,1.863,0,0,0,1.542-.172,2,2,0,0,0,.67-2.672,1.908,1.908,0,0,0-1.381-.936,1.818,1.818,0,0,0-1.1.27,6.3,6.3,0,0,1-.675.289,1.58,1.58,0,0,1-1.82-.349c-.708-.817-.55-2.407-.347-3.834.019-.129.035-.242.045-.331.026-.221.078-.467.133-.728.128-.609.3-1.443.037-1.746a2.137,2.137,0,0,0-1.428-.452l-.28-.028c-.191-.022-.422-.062-.69-.107a12.365,12.365,0,0,0-1.992-.228c-1.248,0-1.277.44-1.289.628a2.308,2.308,0,0,0,.242.973,3.261,3.261,0,0,1,.317,1.68,3.172,3.172,0,0,1-1.155,2.061,3.041,3.041,0,0,1-1.892.659,3.1,3.1,0,0,1-2.448-1.2,3.183,3.183,0,0,1-.506-2.869,4.207,4.207,0,0,1,.293-.674c.236-.463.281-.608.144-.855-.176-.318-.751-.384-1.2-.384a13,13,0,0,0-2.46.351l-.339.07,0,.013-.3.047-.2.032c-.81.146-.88.643-.684,2.162.029.224.057.445.076.657.015.167.049.392.088.653.208,1.383.594,3.957-1.315,4.339a1.939,1.939,0,0,1-.377.037,3.378,3.378,0,0,1-1.242-.305,2.466,2.466,0,0,0-.834-.228,1.864,1.864,0,0,0-1.153.407,2.008,2.008,0,0,0-.468,2.531,1.907,1.907,0,0,0,1.645.947,1.788,1.788,0,0,0,.819-.2A2.962,2.962,0,0,1,1173.973,713.121Zm2-11.711.068.431Z" transform="translate(-1168.726 -700.773)" fill="#77d7f8"/>
      </g>
      <g id="Group_10708" data-name="Group 10708" transform="translate(871.448 946.527)">
        <path id="Path_5165" data-name="Path 5165" d="M455.641,478.58a7.059,7.059,0,1,1,1.248-.111A7.041,7.041,0,0,1,455.641,478.58Zm.015-12.915a5.919,5.919,0,0,0-1.039.093,5.861,5.861,0,0,0,1.024,11.631,5.866,5.866,0,0,0,5.776-6.893A5.851,5.851,0,0,0,455.656,465.665Z" transform="translate(-448.594 -464.473)" fill="#77d7f8"/>
        <path id="Path_5166" data-name="Path 5166" d="M477.462,486.922a.6.6,0,0,1-.586-.491l-1.168-6.533a.6.6,0,1,1,1.173-.21l1.168,6.533a.6.6,0,0,1-.482.692A.589.589,0,0,1,477.462,486.922Z" transform="translate(-469.825 -476.006)" fill="#77d7f8"/>
        <path id="Path_5167" data-name="Path 5167" d="M464.538,494a.6.6,0,0,1-.1-1.183l6.264-1.12a.6.6,0,0,1,.21,1.173l-6.264,1.12A.6.6,0,0,1,464.538,494Z" transform="translate(-460.616 -485.788)" fill="#77d7f8"/>
      </g>
      <g id="Group_10709" data-name="Group 10709" transform="translate(905.246 1108.672)">
        <path id="Path_5168" data-name="Path 5168" d="M703.114,1241.9l1.165,1.123-.264,1.6,1.428-.762,1.437.745-.283-1.593,1.152-1.136-1.6-.223-.725-1.447-.708,1.455Z" transform="translate(-681.754 -1234.239)" fill="#77d7f8"/>
        <path id="Path_5169" data-name="Path 5169" d="M653.264,1231.211l1.165,1.122-.264,1.6,1.428-.761,1.437.744-.283-1.593,1.152-1.136-1.6-.224-.724-1.447-.708,1.455Z" transform="translate(-642.707 -1225.868)" fill="#77d7f8"/>
        <path id="Path_5170" data-name="Path 5170" d="M604.55,1214.385l1.165,1.122-.264,1.6,1.428-.761,1.436.744-.283-1.593,1.152-1.136-1.6-.223-.725-1.447-.707,1.455Z" transform="translate(-604.55 -1212.687)" fill="#77d7f8"/>
      </g>
      <g id="Group_10713" data-name="Group 10713" transform="translate(891.251 942.595)">
        <g id="Group_10712" data-name="Group 10712">
          <g id="Group_10711" data-name="Group 10711">
            <g id="Group_10710" data-name="Group 10710">
              <path id="Path_5171" data-name="Path 5171" d="M542.455,446.331a2.683,2.683,0,0,1-2.481,2.2,2.346,2.346,0,0,0,4.684.28,2.686,2.686,0,0,1-2.2-2.482Z" transform="translate(-539.974 -446.331)" fill="#77d7f8"/>
            </g>
          </g>
        </g>
      </g>
      <g id="Group_10715" data-name="Group 10715" transform="translate(893.752 1104.476)">
        <g id="Group_10714" data-name="Group 10714" transform="translate(0 0)">
          <path id="Path_5172" data-name="Path 5172" d="M554.227,1198.753a2.713,2.713,0,0,1-.466-5.385,2.74,2.74,0,0,1,.469-.041,2.713,2.713,0,0,1,.466,5.386A2.738,2.738,0,0,1,554.227,1198.753Zm0-4.234a1.5,1.5,0,0,0-.263.023,1.519,1.519,0,1,0,.263-.023Z" transform="translate(-551.515 -1193.326)" fill="#77d7f8"/>
        </g>
      </g>
      <path id="Path_5173" data-name="Path 5173" d="M987.857,236.834l-16.95-.1.053-9.042,6.484.038-8.25-9.837-8.49,9.738,6.613.039-.053,9.042-14.1-.083a3.94,3.94,0,0,1-1.155-.213l-.053-.016c-4.285-.4-6.826-3.122-6.8-7.282.026-4.322,4.058-7.838,8.989-7.838h.062c.309,0,.608.013.913.035a19.492,19.492,0,0,1,2.359-5.472,10.435,10.435,0,0,1,8.465-5.194c.185-.008.367-.011.546-.011a12.5,12.5,0,0,1,8.709,3.488,7.455,7.455,0,0,1,6.013-2.514h.069a8.138,8.138,0,0,1,8.086,8.188,9.748,9.748,0,0,1-.261,2.334,5.972,5.972,0,0,1,3.884,5.893c-.07,7.7-4.862,8.754-5.066,8.8Zm-15.751-1.285,15.625.093c.5-.131,4-1.281,4.061-7.624a4.849,4.849,0,0,0-3.6-4.947l-.591-.186.209-.584a7.707,7.707,0,0,0,.364-2.509,6.946,6.946,0,0,0-6.9-6.988h-.061a6.086,6.086,0,0,0-5.431,2.553l-.406.644-.528-.549a11.413,11.413,0,0,0-8.854-3.613c-3.074.128-5.6,1.693-7.512,4.65a18.271,18.271,0,0,0-2.32,5.594l-.116.519-.529-.056a12.89,12.89,0,0,0-1.315-.075h-.055c-4.278,0-7.775,2.985-7.8,6.653-.021,3.545,2.084,5.766,5.775,6.093l.059.005.17.051a2.86,2.86,0,0,0,.82.162l12.912.076.039-6.658-8.021-.048,11.115-12.748,10.8,12.878-7.867-.047Z" transform="translate(33.906 680.881)" fill="#77d7f8"/>
      <g id="Group_10716" data-name="Group 10716" transform="translate(1021.487 949.734)">
        <path id="Path_5174" data-name="Path 5174" d="M1163.46,508.821c-.031,0-.063,0-.094,0a1.091,1.091,0,1,0,.094,0Z" transform="translate(-1157.724 -502.418)" fill="#77d7f8"/>
        <path id="Path_5175" data-name="Path 5175" d="M1142.036,479.272c-.031,0-.062,0-.094,0a1.089,1.089,0,1,0,.094,0Z" transform="translate(-1140.944 -479.272)" fill="#77d7f8"/>
        <path id="Path_5176" data-name="Path 5176" d="M1180.655,539.289c-.031,0-.062,0-.094,0a1.091,1.091,0,0,0-.995,1.179,1.1,1.1,0,0,0,1.179,1,1.091,1.091,0,0,0,1-1.179A1.1,1.1,0,0,0,1180.655,539.289Z" transform="translate(-1171.193 -526.283)" fill="#77d7f8"/>
      </g>
      <g id="Group_10717" data-name="Group 10717" transform="translate(852.006 946.384)">
        <path id="Path_5177" data-name="Path 5177" d="M382.474,501.138a2.568,2.568,0,1,1,1.18-.289A2.558,2.558,0,0,1,382.474,501.138Zm0-3.941a1.375,1.375,0,1,0,1.222.742A1.371,1.371,0,0,0,382.471,497.2Z" transform="translate(-375.348 -489.029)" fill="#77d7f8"/>
        <path id="Path_5178" data-name="Path 5178" d="M361.444,534.586a2.567,2.567,0,1,1,1.18-.289A2.559,2.559,0,0,1,361.444,534.586Zm0-3.941a1.356,1.356,0,0,0-.631.155,1.374,1.374,0,0,0,.634,2.594,1.362,1.362,0,0,0,.631-.155,1.374,1.374,0,0,0-.634-2.594Z" transform="translate(-358.877 -515.229)" fill="#77d7f8"/>
        <path id="Path_5179" data-name="Path 5179" d="M407.628,468.948a2.567,2.567,0,1,1,1.18-.288A2.558,2.558,0,0,1,407.628,468.948Zm0-3.941a1.357,1.357,0,0,0-.631.155,1.374,1.374,0,0,0,.634,2.594,1.375,1.375,0,0,0,1.219-2.007A1.371,1.371,0,0,0,407.625,465.007Z" transform="translate(-395.053 -463.815)" fill="#77d7f8"/>
      </g>
      <g id="Group_10718" data-name="Group 10718" transform="translate(944.223 910.415)">
        <path id="Path_5180" data-name="Path 5180" d="M786.964,302.95h0a2.558,2.558,0,0,1-.462-5.072,2.577,2.577,0,0,1,.467-.043,2.558,2.558,0,0,1,.462,5.073A2.579,2.579,0,0,1,786.964,302.95Zm0-3.923a1.4,1.4,0,0,0-.251.023,1.367,1.367,0,0,0-1.1,1.164,1.365,1.365,0,0,0,1.349,1.545h0a1.4,1.4,0,0,0,.251-.023,1.366,1.366,0,0,0-.247-2.708Z" transform="translate(-784.411 -297.835)" fill="#77d7f8"/>
        <path id="Path_5181" data-name="Path 5181" d="M829.065,305.874h0a2.558,2.558,0,0,1-.462-5.073,2.577,2.577,0,0,1,.467-.043,2.558,2.558,0,0,1,.461,5.073A2.594,2.594,0,0,1,829.065,305.874Zm0-3.923a1.408,1.408,0,0,0-.252.023,1.366,1.366,0,0,0,.247,2.708h0a1.4,1.4,0,0,0,.251-.023,1.366,1.366,0,0,0-.246-2.708Z" transform="translate(-817.387 -300.125)" fill="#77d7f8"/>
      </g>
      <g id="Group_10719" data-name="Group 10719" transform="translate(964.728 922.235)">
        <path id="Path_5182" data-name="Path 5182" d="M880.392,352.382a1.367,1.367,0,0,0-1.257,1.888,1.36,1.36,0,0,0,1.154.84,1.365,1.365,0,0,0,1.368-1.883,1.361,1.361,0,0,0-1.154-.84C880.464,352.383,880.428,352.382,880.392,352.382Z" transform="translate(-879.03 -352.382)" fill="#77d7f8"/>
        <path id="Path_5183" data-name="Path 5183" d="M920.306,366.092a1.366,1.366,0,0,0-.1,2.727c.037,0,.074,0,.11,0h0a1.366,1.366,0,0,0,.1-2.727C920.379,366.094,920.342,366.092,920.306,366.092Z" transform="translate(-910.294 -363.121)" fill="#77d7f8"/>
      </g>
      <g id="Group_10720" data-name="Group 10720" transform="translate(869.068 1104.468)">
        <path id="Path_5184" data-name="Path 5184" d="M460.262,1198.406h0a2.558,2.558,0,0,1-.462-5.073,2.606,2.606,0,0,1,.467-.042,2.558,2.558,0,0,1,.462,5.073A2.584,2.584,0,0,1,460.262,1198.406Zm0-3.924a1.408,1.408,0,0,0-.251.023,1.366,1.366,0,0,0,.247,2.709h0a1.394,1.394,0,0,0,.251-.023,1.366,1.366,0,0,0-.246-2.708Z" transform="translate(-453.353 -1193.29)" fill="#77d7f8"/>
        <path id="Path_5185" data-name="Path 5185" d="M440.166,1237.356h0a2.558,2.558,0,0,1-.462-5.073,2.6,2.6,0,0,1,.467-.043,2.558,2.558,0,0,1,.461,5.073A2.635,2.635,0,0,1,440.166,1237.356Zm0-3.924a1.388,1.388,0,0,0-.252.023,1.339,1.339,0,0,0-.581.259,1.363,1.363,0,1,0,.833-.282Z" transform="translate(-437.612 -1223.799)" fill="#77d7f8"/>
      </g>
      <g id="Group_10724" data-name="Group 10724" transform="translate(935.078 910.677)">
        <g id="Group_10723" data-name="Group 10723">
          <g id="Group_10722" data-name="Group 10722">
            <g id="Group_10721" data-name="Group 10721">
              <path id="Path_5186" data-name="Path 5186" d="M744.236,299.043a2.6,2.6,0,0,1-2.021,2.5,2.273,2.273,0,0,0,4.521-.477,2.6,2.6,0,0,1-2.5-2.022Z" transform="translate(-742.214 -299.043)" fill="#77d7f8"/>
            </g>
          </g>
        </g>
      </g>
      <g id="Group_10728" data-name="Group 10728" transform="translate(879.084 1002.691)">
        <g id="Group_10727" data-name="Group 10727" transform="translate(0 0)">
          <g id="Group_10726" data-name="Group 10726">
            <g id="Group_10725" data-name="Group 10725">
              <path id="Path_5187" data-name="Path 5187" d="M488.737,725.738a2.838,2.838,0,0,1-2.812-2.1,2.48,2.48,0,0,0,.715,4.909,2.84,2.84,0,0,1,2.1-2.812Z" transform="translate(-483.828 -723.642)" fill="#77d7f8"/>
            </g>
          </g>
        </g>
      </g>
      <g id="Group_10732" data-name="Group 10732" transform="translate(883.103 990.284)">
        <g id="Group_10731" data-name="Group 10731" transform="translate(0 0)">
          <g id="Group_10730" data-name="Group 10730">
            <g id="Group_10729" data-name="Group 10729">
              <path id="Path_5188" data-name="Path 5188" d="M507.282,668.486a2.837,2.837,0,0,1-2.811-2.1,2.48,2.48,0,1,0,.715,4.909,2.839,2.839,0,0,1,2.1-2.812Z" transform="translate(-502.374 -666.389)" fill="#77d7f8"/>
            </g>
          </g>
        </g>
      </g>
      <g id="Group_10736" data-name="Group 10736" transform="translate(877.876 1015.921)">
        <g id="Group_10735" data-name="Group 10735" transform="translate(0 0)">
          <g id="Group_10734" data-name="Group 10734">
            <g id="Group_10733" data-name="Group 10733">
              <path id="Path_5189" data-name="Path 5189" d="M483.24,786.824a2.884,2.884,0,0,1-2.857-2.131,2.52,2.52,0,0,0,.726,4.987,2.884,2.884,0,0,1,2.131-2.857Z" transform="translate(-478.253 -784.693)" fill="#77d7f8"/>
            </g>
          </g>
        </g>
      </g>
      <g id="Group_10740" data-name="Group 10740" transform="translate(1033.413 1023.702)">
        <g id="Group_10739" data-name="Group 10739" transform="translate(0 0)">
          <g id="Group_10738" data-name="Group 10738">
            <g id="Group_10737" data-name="Group 10737">
              <path id="Path_5190" data-name="Path 5190" d="M1201.014,823.138a2.519,2.519,0,0,0-5.039-.041,2.519,2.519,0,1,0,5.039.041Z" transform="translate(-1195.975 -820.598)" fill="#77d7f8"/>
            </g>
          </g>
        </g>
      </g>
      <g id="Group_10744" data-name="Group 10744" transform="translate(1031.929 1033.762)">
        <g id="Group_10743" data-name="Group 10743" transform="translate(0 0)">
          <g id="Group_10742" data-name="Group 10742">
            <g id="Group_10741" data-name="Group 10741">
              <path id="Path_5191" data-name="Path 5191" d="M1194.169,869.56a2.52,2.52,0,0,0-5.039-.041,2.52,2.52,0,1,0,5.039.041Z" transform="translate(-1189.13 -867.02)" fill="#77d7f8"/>
            </g>
          </g>
        </g>
      </g>
      <path id="Path_5192" data-name="Path 5192" d="M344.16,722.221a3.052,3.052,0,0,1-2.882-2.484l-3.859-2.685a3.063,3.063,0,0,1-1.205.5,3.1,3.1,0,0,1-.539.048,3.2,3.2,0,0,1-3.115-2.689,3.3,3.3,0,0,1,.488-2.413,3.043,3.043,0,0,1,3.7-1.167l2.332-2a3.183,3.183,0,0,1,2.557-3.4,3.063,3.063,0,0,1,.54-.048,3.263,3.263,0,0,1,.605,6.45,3.038,3.038,0,0,1-1.609-.151l-2.115,1.814,3.351,2.37a3.291,3.291,0,0,1,1.788-.57,2.436,2.436,0,0,1,.438.039,3.247,3.247,0,0,1,3.02,2.73,2.8,2.8,0,0,1-.783,2.42,4.022,4.022,0,0,1-2.195,1.2A3,3,0,0,1,344.16,722.221Zm-6.829-6.682,5.024,3.495.044.243A1.853,1.853,0,0,0,344.467,721a2.845,2.845,0,0,0,1.531-.834,1.637,1.637,0,0,0,.483-1.4c-.188-1.049-.746-1.528-2.06-1.767a1.252,1.252,0,0,0-.224-.019,2.013,2.013,0,0,0-1.312.526l-.354.4L337.6,714.42l-.058-.7L341,710.756l.361.2a1.838,1.838,0,0,0,1.214.2,2.072,2.072,0,0,0-.4-4.085,1.891,1.891,0,0,0-.33.029,2.006,2.006,0,0,0-1.549,2.369l.06.335-3.445,2.955-.364-.206a1.9,1.9,0,0,0-1.267-.226,1.872,1.872,0,0,0-1.238.826,2.115,2.115,0,0,0-.31,1.546,2.014,2.014,0,0,0,1.942,1.707,1.882,1.882,0,0,0,1.3-.527Z" transform="translate(513.785 292.965)" fill="#77d7f8"/>
      <path id="Path_5193" data-name="Path 5193" d="M595.686,408.641h0a1.6,1.6,0,0,1-.923-.291l-.588-.41a1.6,1.6,0,0,1-.4-2.241l1.586-2.277a1.61,1.61,0,0,1-.4-2.919l5.284-3.238a1.634,1.634,0,0,1,1.764.048,1.617,1.617,0,0,1,.661,1.632l-1.2,6.088a1.633,1.633,0,0,1-1.363,1.281,1.617,1.617,0,0,1-1.516-.64l-1.585,2.275a1.626,1.626,0,0,1-1.041.666A1.589,1.589,0,0,1,595.686,408.641Zm5.412-10.426a.42.42,0,0,0-.221.063l-5.287,3.24a.42.42,0,0,0-.188.45.41.41,0,0,0,.358.319l1.705.2-2.712,3.893a.412.412,0,0,0,.1.579l.591.413a.42.42,0,0,0,.24.076h0a.388.388,0,0,0,.071-.006.435.435,0,0,0,.277-.18l2.715-3.9.765,1.541a.427.427,0,0,0,.435.227.433.433,0,0,0,.356-.341l1.2-6.077a.423.423,0,0,0-.173-.426A.406.406,0,0,0,601.1,398.215Z" transform="translate(309.363 534.882)" fill="#77d7f8"/>
      <g id="Group_10746" data-name="Group 10746" transform="translate(978.838 925.985)">
        <g id="Group_10745" data-name="Group 10745">
          <path id="Path_5194" data-name="Path 5194" d="M956.505,386.909h0a2.38,2.38,0,0,1-1.33-.409l-9.985-6.708a2.356,2.356,0,0,1-.992-1.432,2.143,2.143,0,0,1,.3-1.691l4.051-6.03a2.191,2.191,0,0,1,1.828-.955,2.369,2.369,0,0,1,1.325.408l.287.193h0l9.7,6.515.026.018.316.212-.02.029a2.248,2.248,0,0,1,.366,2.871l-4.052,6.03A2.184,2.184,0,0,1,956.505,386.909Zm-6.123-16.034a.988.988,0,0,0-.839.428l-4.051,6.03a.963.963,0,0,0-.132.761,1.169,1.169,0,0,0,.495.708l9.985,6.708a1.192,1.192,0,0,0,.665.207,1,1,0,0,0,.835-.423l4.051-6.03a1.05,1.05,0,0,0-.168-1.312l-7.748,1.852a1.085,1.085,0,0,1-.25.029,1.07,1.07,0,0,1-1.057-.916l-1.219-7.894A1.174,1.174,0,0,0,950.383,370.876Zm1.911,1.045,1.033,6.693,6.585-1.574Z" transform="translate(-944.141 -369.684)" fill="#77d7f8"/>
        </g>
        <path id="Path_5195" data-name="Path 5195" d="M1044.124,438.15a.594.594,0,0,1-.489-.255,45.471,45.471,0,0,0-9.646-10.031.6.6,0,1,1,.69-.972,45.866,45.866,0,0,1,9.933,10.321.6.6,0,0,1-.488.937Z" transform="translate(-1014.322 -414.408)" fill="#77d7f8"/>
        <path id="Path_5196" data-name="Path 5196" d="M1030.7,451.53a.6.6,0,0,1-.49-.255,45.561,45.561,0,0,0-9.646-10.03.6.6,0,1,1,.69-.972,45.874,45.874,0,0,1,9.934,10.321.6.6,0,0,1-.488.937Z" transform="translate(-1003.806 -424.889)" fill="#77d7f8"/>
      </g>
      <g id="Group_10749" data-name="Group 10749" transform="translate(1046.337 968.152)">
        <g id="Group_10747" data-name="Group 10747" transform="translate(0)">
          <path id="Path_5197" data-name="Path 5197" d="M1259.7,594.486l0-.6a2.77,2.77,0,0,1,2.747-2.787l4.837-.023-.007-1.516-5.658.027a5.935,5.935,0,0,1-5.941-5.875l-.063-13.41a5.948,5.948,0,0,1,5.914-5.954l19.248-.09a5.934,5.934,0,0,1,5.917,5.9l.063,13.41a5.917,5.917,0,0,1-5.889,5.931l-5.6.026.007,1.516,4.8-.023a2.778,2.778,0,0,1,2.779,2.761l0,.6Zm8.76-6.119.019,3.9-6.029.029a1.549,1.549,0,0,0-1.452.993l20.551-.1a1.557,1.557,0,0,0-1.459-.979l-6,.028-.018-3.9,6.792-.032a4.723,4.723,0,0,0,4.7-4.733l-.063-13.41a4.739,4.739,0,0,0-4.725-4.712h-.022l-19.22.09a4.756,4.756,0,0,0-4.728,4.756l.063,13.41a4.741,4.741,0,0,0,4.75,4.689h.023Zm-7.136-2.188a2.975,2.975,0,0,1-2.943-2.988l-.06-12.82a3.3,3.3,0,0,1,.938-2.327,3.18,3.18,0,0,1,2.281-.983l19.235-.09a3.259,3.259,0,0,1,3.208,3.28l.06,12.82a2.97,2.97,0,0,1-2.916,3.016Zm19.45-18.613-.009.6-19.22.09a2,2,0,0,0-1.43.621,2.115,2.115,0,0,0-.6,1.491l.06,12.82a1.779,1.779,0,0,0,1.738,1.8l19.81-.093a1.777,1.777,0,0,0,1.729-1.818l-.06-12.82a2.065,2.065,0,0,0-2.016-2.093Z" transform="translate(-1255.615 -564.261)" fill="#77d7f8"/>
        </g>
        <g id="Group_10748" data-name="Group 10748" transform="translate(8.586 6.949)">
          <path id="Path_5198" data-name="Path 5198" d="M1304.863,607l-2.6-3.906c-.69.464-1.058.722-1.417.974-.441.309-.9.629-1.927,1.316-.135.09-.269.195-.411.306a2.619,2.619,0,0,1-1.585.73,1.679,1.679,0,0,1-.58-.106l-.113-.041c-.87-.316-1.027-.55-.984-1.475l.005-.12c0-.057,0-.107,0-.15a.98.98,0,0,1,.459-.943c1.09-.727,1.611-1.09,2.114-1.44s1.036-.722,2.139-1.457c.167-.111.312-.2.434-.271l.053-.032c-.035-.057-.082-.13-.144-.224l-2.466-3.7,1.027-.068c.587-.039,1.195-.058,1.857-.058,1.15,0,2.289.058,3.391.114s2.15.11,3.21.11c.411,0,.79-.008,1.16-.024l.8-.036-.2.777c-.109.432-2.4,6.053-3.765,8.8Zm-8.439-1.925c.061.024.138.051.209.077l.117.043a.479.479,0,0,0,.168.033,1.79,1.79,0,0,0,.852-.478c.153-.119.311-.242.483-.357,1.019-.679,1.469-.995,1.9-1.3s.9-.63,1.937-1.321l.5-.331,2.113,3.171c1.043-2.232,2.357-5.4,2.937-6.865l-.318,0c-1.09,0-2.2-.057-3.271-.111s-2.21-.113-3.33-.113c-.254,0-.5,0-.736.009l1.309,1.964a1.59,1.59,0,0,1,.417,1.188c-.086.381-.387.561-.7.752-.108.065-.237.142-.385.241-1.093.729-1.615,1.092-2.119,1.443s-1.011.7-2.063,1.407c0,.06,0,.126,0,.2l-.005.124C1296.429,604.923,1296.426,605,1296.424,605.07Z" transform="translate(-1295.236 -596.328)" fill="#77d7f8"/>
        </g>
      </g>
      <path id="Path_5199" data-name="Path 5199" d="M310.633,840.761a3.946,3.946,0,0,1-.007-7.892,4.013,4.013,0,0,1,.457.026c.1.011.194.027.292.046l3.867-4.552a3.946,3.946,0,1,1,7.877-.212l3.987,3.442a4.008,4.008,0,0,1,1.569-.131,3.577,3.577,0,0,1,.6.123l5.144-5.221a1.842,1.842,0,0,1-.07-3.438l7.056-2.865a1.842,1.842,0,0,1,2.418,2.355l-2.683,7.126a1.849,1.849,0,0,1-1.736,1.193h-.039a1.837,1.837,0,0,1-1.666-1.195l-5.547,5.632a3.521,3.521,0,0,1-.012.659,3.945,3.945,0,1,1-7.839-.9c0-.038.01-.077.016-.117l-3.618-3.128a3.992,3.992,0,0,1-2.842.08l-3.394,4.093a3.888,3.888,0,0,1,.087,1.382A3.944,3.944,0,0,1,310.633,840.761Zm-.007-6.7a2.754,2.754,0,0,0-.31,5.49,2.826,2.826,0,0,0,.317.018,2.753,2.753,0,0,0,2.733-2.442,2.715,2.715,0,0,0-.128-1.191l-.107-.316,4.4-5.3.426.219a2.646,2.646,0,0,0,.91.266,2.8,2.8,0,0,0,1.646-.322l.363-.2,4.76,4.115-.085.353a2.83,2.83,0,0,0-.062.339,2.753,2.753,0,0,0,5.471.631,2.678,2.678,0,0,0-.016-.664l-.037-.288,7.33-7.443.569,1.779a.645.645,0,0,0,.6.464.665.665,0,0,0,.623-.416l2.683-7.127a.653.653,0,0,0-.148-.693.668.668,0,0,0-.709-.139l-7.05,2.862a.652.652,0,0,0,.078,1.232l1.813.5L329.582,833l-.367-.146a2.666,2.666,0,0,0-.677-.179,2.832,2.832,0,0,0-1.348.176l-.334.13-4.978-4.3.034-.312a2.759,2.759,0,0,0-2.419-3.036,2.879,2.879,0,0,0-.317-.018,2.753,2.753,0,0,0-2.735,2.44,2.627,2.627,0,0,0,.012.725l.045.273-4.71,5.544-.376-.117a2.589,2.589,0,0,0-.466-.1A2.843,2.843,0,0,0,310.626,834.061Z" transform="translate(534.01 203.608)" fill="#77d7f8"/>
      <g id="Group_10750" data-name="Group 10750" transform="translate(1005.763 950.782)">
        <path id="Path_5200" data-name="Path 5200" d="M1077.93,502.493h0a2.342,2.342,0,0,1-1.849-.934l-7.211-9.5a2.348,2.348,0,0,1-.474-1.667,2.13,2.13,0,0,1,.831-1.494l5.739-4.355a2.121,2.121,0,0,1,1.293-.432,2.328,2.328,0,0,1,1.572.627l.029-.022.242.318.009.012,7.212,9.5a2.253,2.253,0,0,1-.363,3.161l-5.739,4.356A2.115,2.115,0,0,1,1077.93,502.493Zm-1.672-17.192a.939.939,0,0,0-.573.189l-5.739,4.356a.948.948,0,0,0-.366.669,1.161,1.161,0,0,0,.238.822l7.211,9.5a1.146,1.146,0,0,0,.9.462h0a.929.929,0,0,0,.568-.188l5.739-4.355a1.05,1.05,0,0,0,.2-1.4l-7.893-.757a1.053,1.053,0,0,1-.742-.408,1.072,1.072,0,0,1-.2-.841l1.391-7.773A1.123,1.123,0,0,0,1076.258,485.3Zm.535,8.127,6.669.64-5.489-7.233Z" transform="translate(-1068.383 -484.109)" fill="#77d7f8"/>
      </g>
      <g id="Group_10751" data-name="Group 10751" transform="translate(935.22 1084.213)">
        <path id="Path_5201" data-name="Path 5201" d="M760.979,1121.377l-3.075-2.107a.6.6,0,1,1,.674-.983l1.986,1.361,2.725-4.993a.6.6,0,0,1,1.046.571Z" transform="translate(-754.442 -1111.198)" fill="#77d7f8"/>
        <path id="Path_5202" data-name="Path 5202" d="M749.7,1113.507a6.847,6.847,0,1,1,1.211-.108A6.83,6.83,0,0,1,749.7,1113.507Zm.015-12.49a5.655,5.655,0,0,0-5.567,6.644,5.648,5.648,0,1,0,5.567-6.644Z" transform="translate(-742.865 -1099.825)" fill="#77d7f8"/>
      </g>
      <path id="Path_5203" data-name="Path 5203" d="M600.776,1074.179a1,1,0,0,1-1.005-.85l-.367-1.748a8.307,8.307,0,0,1-1.667-.587l-1.313,1.155a1.112,1.112,0,0,1-.718.291.971.971,0,0,1-.662-.268l-1.648-1.492a1,1,0,0,1-.156-1.355l.976-1.5a8.326,8.326,0,0,1-.762-1.594l-1.746-.112a.993.993,0,0,1-.992-.959l-.11-2.221a.993.993,0,0,1,.849-1.069l1.748-.368a8.294,8.294,0,0,1,.587-1.666l-1.155-1.314a.992.992,0,0,1-.023-1.379l1.492-1.649a.986.986,0,0,1,.747-.352,1.1,1.1,0,0,1,.607.2l1.5.976a8.3,8.3,0,0,1,1.594-.762l.112-1.746a.993.993,0,0,1,.959-.991l2.221-.111.065,0a1,1,0,0,1,1,.85l.368,1.748a8.355,8.355,0,0,1,1.666.588l1.314-1.155a1.106,1.106,0,0,1,.718-.291.971.971,0,0,1,.661.268l1.649,1.491a1,1,0,0,1,.156,1.357l-.976,1.5a8.276,8.276,0,0,1,.762,1.594l1.747.112a.994.994,0,0,1,.991.959l.111,2.221a.994.994,0,0,1-.849,1.069l-1.747.368a8.31,8.31,0,0,1-.587,1.666l1.155,1.313a.993.993,0,0,1,.023,1.379l-1.492,1.649a.988.988,0,0,1-.747.352,1.105,1.105,0,0,1-.609-.2l-1.5-.976a8.273,8.273,0,0,1-1.594.762l-.112,1.747a.994.994,0,0,1-.958.991l-2.221.111Zm0-1.192v0Zm-3.21-3.43.365.2a7.126,7.126,0,0,0,2.086.737l.392.073.507,2.415,1.922-.1.158-2.45.4-.118a7.107,7.107,0,0,0,2-.952l.329-.226,2.066,1.348,1.291-1.428-1.621-1.842.2-.365a7.117,7.117,0,0,0,.738-2.086l.073-.391,2.414-.508-.1-1.923-2.45-.156-.118-.4a7.108,7.108,0,0,0-.952-2l-.225-.328,1.348-2.066-1.427-1.291-1.843,1.62-.365-.2a7.134,7.134,0,0,0-2.086-.738l-.391-.073-.508-2.414-1.922.1-.157,2.45-.4.118a7.112,7.112,0,0,0-2,.952l-.329.225L594.9,1056.4l-1.291,1.427,1.62,1.843-.2.365a7.118,7.118,0,0,0-.738,2.085l-.073.392-2.414.508.1,1.922,2.449.156.119.4a7.128,7.128,0,0,0,.952,2l.225.329-1.348,2.065,1.427,1.292Zm3.775-3.891a2.209,2.209,0,1,1,.111,0Zm0-3.256h-.052a1.041,1.041,0,1,0,.052,0Z" transform="translate(311.62 21.296)" fill="#77d7f8"/>
      <path id="Path_5204" data-name="Path 5204" d="M535.755,1026.06a.984.984,0,0,1-.148-.011l-1.632-.243a.9.9,0,0,1-.785-.925l-.011-1.23a6.283,6.283,0,0,1-.984-.586l-1.038.6a.879.879,0,0,1-1.208-.227l-.981-1.326a.9.9,0,0,1,.1-1.209l.861-.876a6.332,6.332,0,0,1-.281-1.11l-1.157-.311a.9.9,0,0,1-.694-1.015l.244-1.632a.893.893,0,0,1,.925-.785l1.228-.011a6.318,6.318,0,0,1,.586-.984l-.6-1.038a.893.893,0,0,1,.227-1.207l1.326-.981a.917.917,0,0,1,.55-.191.927.927,0,0,1,.658.289l.877.862a6.328,6.328,0,0,1,1.11-.281l.311-1.157a.893.893,0,0,1,.865-.7.987.987,0,0,1,.149.011l1.632.244a.894.894,0,0,1,.784.924l.011,1.229a6.307,6.307,0,0,1,.984.586l1.038-.6a.881.881,0,0,1,1.207.227l.981,1.326a.894.894,0,0,1-.1,1.209l-.861.876a6.27,6.27,0,0,1,.281,1.11l1.157.311a.894.894,0,0,1,.693,1.014l-.244,1.633a.894.894,0,0,1-.926.784l-1.228.011a6.275,6.275,0,0,1-.586.984l.6,1.037a.9.9,0,0,1-.227,1.207l-1.327.982a.892.892,0,0,1-1.209-.1l-.876-.861a6.265,6.265,0,0,1-1.11.281l-.311,1.157A.892.892,0,0,1,535.755,1026.06Zm-1.376-1.4,1.148.171.465-1.731.414-.038a5.11,5.11,0,0,0,1.545-.389l.367-.156,1.286,1.263.932-.69-.9-1.552.266-.319a5.141,5.141,0,0,0,.817-1.368l.149-.37,1.8-.016.171-1.148-1.731-.465-.038-.414a5.118,5.118,0,0,0-.389-1.545l-.156-.367,1.264-1.286-.69-.932-1.552.894-.319-.266a5.137,5.137,0,0,0-1.369-.817l-.37-.149-.016-1.8-1.148-.172-.465,1.731-.414.038a5.127,5.127,0,0,0-1.546.389l-.367.156-1.285-1.263-.932.69.895,1.552-.266.319a5.13,5.13,0,0,0-.817,1.369l-.149.37-1.8.016-.172,1.147,1.731.465.038.413a5.132,5.132,0,0,0,.389,1.546l.156.367-1.263,1.285.69.932,1.552-.895.32.266a5.132,5.132,0,0,0,1.369.817l.37.149Zm1.552-4.941a1.8,1.8,0,1,1,1.072-.354A1.808,1.808,0,0,1,535.931,1019.719Zm0-2.417a.615.615,0,1,0,.092.007A.637.637,0,0,0,535.929,1017.3Z" transform="translate(360.825 54.928)" fill="#77d7f8"/>
      <path id="Path_5205" data-name="Path 5205" d="M561.12,1297.269a.593.593,0,0,1-.443-.2l-10.683-11.85a129.812,129.812,0,0,1-21.884,5.921,128.2,128.2,0,0,1-97.28-21.879.6.6,0,0,1,.692-.971,127.005,127.005,0,0,0,96.378,21.677,128.6,128.6,0,0,0,22.059-6.005l.379-.141,11.224,12.451a.6.6,0,0,1-.442.995Z" transform="translate(436.964 -147.484)" fill="#77d7f8"/>
      <path id="Path_5206" data-name="Path 5206" d="M1289.164,820.344a.593.593,0,0,1-.409-.163l-12.722-12.022.274-.417a126.926,126.926,0,0,0,20.238-83.28.6.6,0,0,1,1.185-.126,128.116,128.116,0,0,1-20.154,83.642l12,11.337a.6.6,0,0,1-.409,1.029Z" transform="translate(-225.271 278.923)" fill="#77d7f8"/>
      <g id="Group_10752" data-name="Group 10752" transform="translate(834.953 1013.064)">
        <path id="Path_5207" data-name="Path 5207" d="M288.029,787.2a7.844,7.844,0,1,1,7.844-7.845A7.853,7.853,0,0,1,288.029,787.2Zm0-14.5a6.653,6.653,0,1,0,6.652,6.652A6.66,6.66,0,0,0,288.029,772.7Z" transform="translate(-280.185 -771.508)" fill="#77d7f8"/>
        <path id="Path_5208" data-name="Path 5208" d="M314.229,796.407a.6.6,0,0,1-.6-.6V788.36a.6.6,0,0,1,1.192,0v7.451A.6.6,0,0,1,314.229,796.407Z" transform="translate(-306.384 -784.241)" fill="#77d7f8"/>
        <path id="Path_5209" data-name="Path 5209" d="M304.89,806.147h-7.144a.6.6,0,0,1,0-1.192h7.144a.6.6,0,0,1,0,1.192Z" transform="translate(-293.474 -797.707)" fill="#77d7f8"/>
      </g>
      <g id="Group_10756" data-name="Group 10756" transform="translate(886.632 967.358)">
        <g id="Group_10753" data-name="Group 10753" transform="translate(1.423)">
          <path id="Path_5210" data-name="Path 5210" d="M529.144,569.644a3.748,3.748,0,0,1-1.266-.218c-2.861-1.253-2.865-4.3-2.469-5.744a3.954,3.954,0,0,1,2.049-2.775,4.344,4.344,0,0,1,3.364.1.563.563,0,0,1-.482,1.019,3.237,3.237,0,0,0-2.415-.094,2.907,2.907,0,0,0-1.429,2.044c-.036.135-.837,3.236,1.8,4.4a2.231,2.231,0,0,0,2.1-.3.563.563,0,1,1,.729.859A3,3,0,0,1,529.144,569.644Z" transform="translate(-525.224 -560.6)" fill="#77d7f8"/>
        </g>
        <g id="Group_10754" data-name="Group 10754" transform="translate(0 2.883)">
          <path id="Path_5211" data-name="Path 5211" d="M523.445,575.031h-4.222a.563.563,0,0,1,0-1.127h4.222a.563.563,0,1,1,0,1.127Z" transform="translate(-518.659 -573.904)" fill="#77d7f8"/>
        </g>
        <g id="Group_10755" data-name="Group 10755" transform="translate(0 5.033)">
          <path id="Path_5212" data-name="Path 5212" d="M523.445,584.951h-4.222a.563.563,0,0,1,0-1.127h4.222a.563.563,0,1,1,0,1.127Z" transform="translate(-518.659 -583.824)" fill="#77d7f8"/>
        </g>
      </g>
      <g id="Group_10758" data-name="Group 10758" transform="translate(802.5 954.839)">
        <g id="Group_10757" data-name="Group 10757" transform="translate(0 0)">
          <path id="Path_5213" data-name="Path 5213" d="M164.966,686.43a.406.406,0,0,1-.3-.152.757.757,0,0,1-.157-.583l2.571-19.5a.538.538,0,0,1,.459-.519.341.341,0,0,1,.072.008.638.638,0,0,1,.389.728l-2.421,18.362,10.371-8.462a.338.338,0,0,1,.088-.012.352.352,0,0,1,.086.011l10.392,8.547-2.451-18.536a.638.638,0,0,1,.389-.728.356.356,0,0,1,.072-.008.539.539,0,0,1,.459.519l2.581,19.526a.758.758,0,0,1-.156.582.4.4,0,0,1-.3.153.361.361,0,0,1-.09-.012l-10.978-8.013-10.978,8.074A.342.342,0,0,1,164.966,686.43Z" transform="translate(-157.116 -630.316)" fill="#77d7f8"/>
          <path id="Path_5214" data-name="Path 5214" d="M149.136,541.795a6.613,6.613,0,0,1-3.55-1.492,8.4,8.4,0,0,0-1.942-1.091,8.81,8.81,0,0,0-2.307-.281,4.851,4.851,0,0,1-5.609-4.09,8.669,8.669,0,0,0-.967-2.087,8.57,8.57,0,0,0-1.667-1.539,6.481,6.481,0,0,1-2.494-2.881,6.408,6.408,0,0,1,.317-3.694,6.209,6.209,0,0,0,0-4.654,6.411,6.411,0,0,1-.317-3.7,6.482,6.482,0,0,1,2.493-2.881,8.556,8.556,0,0,0,1.668-1.539,6.861,6.861,0,0,0,.881-1.852,7.325,7.325,0,0,1,2.039-3.468,6.457,6.457,0,0,1,3.655-.857,8.792,8.792,0,0,0,2.307-.281,8.408,8.408,0,0,0,1.941-1.091,4.969,4.969,0,0,1,7.1,0,8.4,8.4,0,0,0,1.942,1.091,8.794,8.794,0,0,0,2.307.281,4.852,4.852,0,0,1,5.609,4.09,8.687,8.687,0,0,0,.967,2.087,8.54,8.54,0,0,0,1.667,1.539,6.485,6.485,0,0,1,2.493,2.882,6.405,6.405,0,0,1-.317,3.694,6.209,6.209,0,0,0,0,4.656,6.409,6.409,0,0,1,.317,3.694,6.479,6.479,0,0,1-2.493,2.881,8.563,8.563,0,0,0-1.667,1.539,8.686,8.686,0,0,0-.967,2.086,4.851,4.851,0,0,1-5.609,4.091,8.811,8.811,0,0,0-2.307.281,8.4,8.4,0,0,0-1.941,1.091A6.615,6.615,0,0,1,149.136,541.795Zm0-38.031a5.658,5.658,0,0,0-2.905,1.3,9.546,9.546,0,0,1-2.289,1.263,9.992,9.992,0,0,1-2.684.346,3.78,3.78,0,0,0-4.571,3.335,9.851,9.851,0,0,1-1.146,2.428,9.733,9.733,0,0,1-1.937,1.815,3.762,3.762,0,0,0-1.777,5.354,7.478,7.478,0,0,1,0,5.413,3.761,3.761,0,0,0,1.776,5.354,9.745,9.745,0,0,1,1.938,1.816,9.844,9.844,0,0,1,1.146,2.428,3.781,3.781,0,0,0,4.571,3.335,10.01,10.01,0,0,1,2.684.346,9.529,9.529,0,0,1,2.288,1.262,5.66,5.66,0,0,0,2.906,1.3,5.659,5.659,0,0,0,2.906-1.3,9.554,9.554,0,0,1,2.288-1.263,9.988,9.988,0,0,1,2.681-.346,3.782,3.782,0,0,0,4.574-3.335,9.846,9.846,0,0,1,1.146-2.428,9.728,9.728,0,0,1,1.937-1.815,5.634,5.634,0,0,0,2.113-2.327,5.577,5.577,0,0,0-.336-3.027,7.475,7.475,0,0,1,0-5.414,3.762,3.762,0,0,0-1.777-5.354,9.729,9.729,0,0,1-1.937-1.815,9.837,9.837,0,0,1-1.146-2.428,3.78,3.78,0,0,0-4.571-3.335,9.99,9.99,0,0,1-2.684-.346,9.547,9.547,0,0,1-2.289-1.263A5.66,5.66,0,0,0,149.136,503.763Z" transform="translate(-130.433 -502.829)" fill="#77d7f8"/>
          <path id="Path_5215" data-name="Path 5215" d="M165.9,555.958a14.066,14.066,0,1,1,14.066-14.066A14.082,14.082,0,0,1,165.9,555.958Zm0-26.877a12.811,12.811,0,1,0,12.811,12.811A12.826,12.826,0,0,0,165.9,529.081Z" transform="translate(-147.195 -522.41)" fill="#77d7f8"/>
          <path id="Path_5216" data-name="Path 5216" d="M191.852,571.306a.6.6,0,0,1-.319-.092l-4.365-2.735-4.365,2.735a.6.6,0,0,1-.9-.65l1.21-5.035-3.907-3.275a.6.6,0,0,1,.335-1.06l5.122-.437,1.953-4.7a.6.6,0,0,1,1.11,0l1.953,4.7,5.122.437a.6.6,0,0,1,.335,1.06l-3.907,3.275,1.21,5.035a.6.6,0,0,1-.584.742Zm-4.685-3.979a.63.63,0,0,1,.333.1l3.585,2.246-.994-4.136a.624.624,0,0,1,.207-.627l3.209-2.689-4.209-.359a.625.625,0,0,1-.526-.384l-1.6-3.863-1.6,3.863a.625.625,0,0,1-.526.384l-4.209.359,3.209,2.689a.623.623,0,0,1,.207.627l-.994,4.136,3.585-2.246A.631.631,0,0,1,187.167,567.327Z" transform="translate(-168.464 -544.232)" fill="#77d7f8"/>
        </g>
      </g>
      <g id="Group_10762" data-name="Group 10762" transform="translate(905.991 1097.84)">
        <g id="Group_10761" data-name="Group 10761">
          <g id="Group_10760" data-name="Group 10760">
            <g id="Group_10759" data-name="Group 10759">
              <path id="Path_5217" data-name="Path 5217" d="M610.685,1162.706a2.52,2.52,0,0,0-.362,5.026,2.52,2.52,0,1,0,.362-5.026Z" transform="translate(-607.991 -1162.706)" fill="#77d7f8"/>
            </g>
          </g>
        </g>
      </g>
      <g id="Group_10766" data-name="Group 10766" transform="translate(895.156 1091.556)">
        <g id="Group_10765" data-name="Group 10765" transform="translate(0 0)">
          <g id="Group_10764" data-name="Group 10764">
            <g id="Group_10763" data-name="Group 10763">
              <path id="Path_5218" data-name="Path 5218" d="M560.685,1133.706a2.52,2.52,0,0,0-.362,5.026,2.52,2.52,0,1,0,.362-5.026Z" transform="translate(-557.991 -1133.706)" fill="#77d7f8"/>
            </g>
          </g>
        </g>
      </g>
      <g id="Group_10770" data-name="Group 10770" transform="translate(951.596 1104.812)">
        <g id="Group_10769" data-name="Group 10769">
          <g id="Group_10768" data-name="Group 10768">
            <g id="Group_10767" data-name="Group 10767">
              <path id="Path_5219" data-name="Path 5219" d="M821.126,1194.877a2.52,2.52,0,0,0-.362,5.026,2.52,2.52,0,1,0,.362-5.026Z" transform="translate(-818.432 -1194.877)" fill="#77d7f8"/>
            </g>
          </g>
        </g>
      </g>
      <g id="Group_10774" data-name="Group 10774" transform="translate(942.06 1103.728)">
        <g id="Group_10773" data-name="Group 10773">
          <g id="Group_10772" data-name="Group 10772">
            <g id="Group_10771" data-name="Group 10771">
              <path id="Path_5220" data-name="Path 5220" d="M777.126,1189.877a2.52,2.52,0,0,0-.362,5.026,2.52,2.52,0,1,0,.362-5.026Z" transform="translate(-774.432 -1189.877)" fill="#77d7f8"/>
            </g>
          </g>
        </g>
      </g>
      <path id="Path_5221" data-name="Path 5221" d="M678.849,1164.083a3.029,3.029,0,0,1-2.892-2.571l-3.776-2.8a3.083,3.083,0,0,1-1.669.493,3.26,3.26,0,0,1-.5-6.462,3.066,3.066,0,0,1,1.693.237l1.56-1.119a3.183,3.183,0,0,1,2.659-3.3,3.093,3.093,0,0,1,.449-.033,3.262,3.262,0,0,1,.5,6.467,3.04,3.04,0,0,1-1.626-.208l-1.307.939,3.247,2.446a3.332,3.332,0,0,1,1.724-.518,2.5,2.5,0,0,1,.517.053,3.248,3.248,0,0,1,2.937,2.82c.265,1.8-1.381,3.273-3.086,3.525A2.962,2.962,0,0,1,678.849,1164.083Zm-6.71-6.886,4.916,3.645.036.245a1.847,1.847,0,0,0,2.016,1.785c1.112-.164,2.24-1.1,2.081-2.172-.156-1.054-.7-1.55-2.006-1.828a1.3,1.3,0,0,0-.268-.027,2.032,2.032,0,0,0-1.283.487l-.366.387-4.822-3.632-.039-.724,2.755-1.98.334.195a1.837,1.837,0,0,0,1.207.237,2.01,2.01,0,0,0,1.627-2.324,2.033,2.033,0,0,0-1.955-1.772,1.929,1.929,0,0,0-.275.02,2.006,2.006,0,0,0-1.62,2.321l.053.36-2.749,1.971-.336-.2a1.9,1.9,0,0,0-1.26-.265,2.069,2.069,0,0,0,.327,4.091,1.943,1.943,0,0,0,.275-.02,1.881,1.881,0,0,0,.989-.468Z" transform="translate(251.503 -53.76)" fill="#77d7f8"/>
      <path id="Path_5222" data-name="Path 5222" d="M485.43,1098.016a1.616,1.616,0,0,1-1.139-.475l-.506-.508a1.6,1.6,0,0,1,0-2.276l1.962-1.962a1.61,1.61,0,0,1,.124-2.943l5.772-2.257a1.605,1.605,0,0,1,1.728.358,1.616,1.616,0,0,1,.363,1.723l-2.257,5.781a1.612,1.612,0,0,1-2.946.125l-1.961,1.961A1.625,1.625,0,0,1,485.43,1098.016Zm6.807-9.342a.424.424,0,0,0-.155.03l-5.775,2.259a.421.421,0,0,0-.264.41.41.41,0,0,0,.3.377l1.643.5-3.355,3.355a.412.412,0,0,0,0,.588l.51.511a.429.429,0,0,0,.6-.006l3.358-3.358.482,1.652a.425.425,0,0,0,.388.3h0a.435.435,0,0,0,.41-.273l2.252-5.771a.423.423,0,0,0-.1-.45A.414.414,0,0,0,492.238,1088.674Z" transform="translate(395.66 -5.944)" fill="#77d7f8"/>
      <g id="Group_10781" data-name="Group 10781" transform="translate(834.099 1079.798)">
        <g id="Group_10780" data-name="Group 10780" transform="translate(0.715 9.583)">
          <g id="Group_10777" data-name="Group 10777" transform="translate(0 6.224)">
            <path id="Path_5240" data-name="Path 5240" d="M286.94,1173.432h-6.211a1.185,1.185,0,0,1-1.184-1.184v-18.675a1.185,1.185,0,0,1,1.184-1.184h6.211a1.186,1.186,0,0,1,1.184,1.184v18.675A1.185,1.185,0,0,1,286.94,1173.432Zm0-1.192v0Zm-.008-18.667-6.2.008.008,18.667,6.2-.008Z" transform="translate(-279.545 -1152.389)" fill="#77d7f8"/>
          </g>
          <g id="Group_10778" data-name="Group 10778" transform="translate(11.185 3.112)">
            <path id="Path_5241" data-name="Path 5241" d="M338.555,1162.183h-6.211A1.185,1.185,0,0,1,331.16,1161v-21.787a1.185,1.185,0,0,1,1.184-1.184h6.211a1.185,1.185,0,0,1,1.184,1.184V1161A1.185,1.185,0,0,1,338.555,1162.183Zm0-1.192v0Zm-.008-21.779-6.2.008.008,21.779,6.2-.008Z" transform="translate(-331.16 -1138.028)" fill="#77d7f8"/>
          </g>
          <g id="Group_10779" data-name="Group 10779" transform="translate(22.371)">
            <path id="Path_5242" data-name="Path 5242" d="M390.172,1150.935h-6.211a1.185,1.185,0,0,1-1.184-1.184v-24.9a1.186,1.186,0,0,1,1.184-1.184h6.211a1.185,1.185,0,0,1,1.184,1.184v24.9A1.185,1.185,0,0,1,390.172,1150.935Zm0-1.192v0Zm-.008-24.891-6.2.007.008,24.891,6.2-.008Z" transform="translate(-382.777 -1123.668)" fill="#77d7f8"/>
          </g>
        </g>
        <path id="Path_5243" data-name="Path 5243" d="M276.843,1095.706a.6.6,0,0,1-.218-1.151l28.232-11.11a.6.6,0,1,1,.436,1.109l-28.232,11.11A.6.6,0,0,1,276.843,1095.706Z" transform="translate(-276.246 -1082.547)" fill="#77d7f8"/>
        <path id="Path_5244" data-name="Path 5244" d="M392.689,1084.429a.6.6,0,0,1-.474-.957l1.916-2.514-3.455-.319a.6.6,0,1,1,.11-1.187l5.6.517-3.221,4.226A.6.6,0,0,1,392.689,1084.429Z" transform="translate(-365.455 -1079.449)" fill="#77d7f8"/>
      </g>
      <path id="Path_5245" data-name="Path 5245" d="M1093.353,624.156a1.068,1.068,0,0,1-.742-.293.967.967,0,0,1-.289-.881l.012-.06,1.638-3.954a10.359,10.359,0,0,1-2.911-7.128c0-6.1,5.549-11.059,12.371-11.059s12.37,4.961,12.37,11.059-5.55,11.059-12.37,11.059a13.706,13.706,0,0,1-5.124-.992,25.905,25.905,0,0,1-4.859,2.244C1093.41,624.155,1093.381,624.156,1093.353,624.156Zm10.079-22.183c-6.164,0-11.179,4.427-11.179,9.867a9.223,9.223,0,0,0,2.839,6.569l.285.282-1.714,4.137a25.254,25.254,0,0,0,4.245-2.083l.273-.188.3.132a12.467,12.467,0,0,0,4.948,1.018c6.164,0,11.178-4.426,11.178-9.867S1109.6,601.973,1103.432,601.973Z" transform="translate(-80.384 375.285)" fill="#77d7f8"/>
      <g id="Group_10784" data-name="Group 10784" transform="translate(844.789 1047.449)">
        <g id="Group_10783" data-name="Group 10783" transform="translate(0 0)">
          <g id="Group_10782" data-name="Group 10782">
            <path id="Path_5246" data-name="Path 5246" d="M343.124,930.176a6.694,6.694,0,0,0-6.422,8.543l.13.449-10.817,5.475a.809.809,0,1,0,.734,1.442l10.816-5.475.285.369a6.642,6.642,0,0,0,3.211,2.255,6.71,6.71,0,0,0,2.081.333,6.695,6.695,0,1,0-.02-13.389Zm.017,11.75a5.06,5.06,0,1,1,2.287-.551A5.061,5.061,0,0,1,343.14,941.926Z" transform="translate(-325.573 -930.176)" fill="#77d7f8"/>
          </g>
        </g>
      </g>
      <path id="Path_5247" data-name="Path 5247" d="M425.826,686.168a3.87,3.87,0,0,1-2.188-.615,1.4,1.4,0,0,1-.7-1.412,2.017,2.017,0,0,1,1.291-1.231,4.347,4.347,0,0,1,2.2-.26,3.25,3.25,0,0,1,1.926.866,1.367,1.367,0,0,1,.372.686c.059.326.073.669.485.73.835.124.639-.984.444-1.429a3,3,0,0,0-1.26-1.34,4.42,4.42,0,0,0-.934-.409c-.094-.029-1.089-.241-1.089-.218v-1.128c0-.384.086-.927-.391-1.07a.555.555,0,0,0-.7.445,2.856,2.856,0,0,0-.006.413v1.277c0,.137-.515.136-.652.166a4.834,4.834,0,0,0-1.08.368,2.648,2.648,0,0,0-1.67,2.928,3.5,3.5,0,0,0,2.915,2.24,17.672,17.672,0,0,1,2.381.3,2.332,2.332,0,0,1,1.485,1.144c.6,1.409-1.522,2.129-2.523,2.2a4.19,4.19,0,0,1-2.143-.4,1.74,1.74,0,0,1-1.082-1.309.555.555,0,1,0-1.1.08,2.442,2.442,0,0,0,.759,1.564,4.058,4.058,0,0,0,1.789.978c.09.024.917.174.917.176v1.724a.552.552,0,0,0,1.094.123,7.6,7.6,0,0,0,.006-1.091v-.756a4.513,4.513,0,0,1,.47-.075c1.513-.273,3.3-1.424,2.96-3.2C429.47,686.885,427.39,686.168,425.826,686.168Z" transform="translate(443.837 313.77)" fill="#77d7f8"/>
      <g id="Group_10785" data-name="Group 10785" transform="translate(871.407 1063.428)">
        <path id="Path_5248" data-name="Path 5248" d="M448.405,1016.834v-12.922l6.462,6.46Zm1.192-10.045v7.168l3.584-3.585Z" transform="translate(-448.405 -1003.912)" fill="#77d7f8"/>
        <path id="Path_5249" data-name="Path 5249" d="M479.421,1016.834v-12.922l6.462,6.46Zm1.192-10.045v7.168l3.584-3.585Z" transform="translate(-472.7 -1003.912)" fill="#77d7f8"/>
      </g>
      <path id="Path_5260" data-name="Path 5260" d="M446.8,1121.332v2.348H448v-2.348h2.348v-1.205H448v-2.348h-1.2v2.348h-2.348v1.205Z" transform="translate(426.101 -29.674)" fill="#77d7f8"/>
      <path id="Path_5261" data-name="Path 5261" d="M356.286,638.26v2.348h1.2V638.26h2.348v-1.2h-2.348v-2.348h-1.2v2.348h-2.348v1.2Z" transform="translate(496.998 348.711)" fill="#77d7f8"/>
      <path id="Path_5262" data-name="Path 5262" d="M358.154,1005.916v2.348h1.2v-2.348h2.348v-1.2h-2.348v-2.348h-1.2v2.348h-2.348v1.2Z" transform="translate(495.535 60.729)" fill="#77d7f8"/>
      <g id="Group_10790" data-name="Group 10790" transform="translate(1014.763 1010.376)">
        <g id="Group_10787" data-name="Group 10787" transform="translate(0 27.723)">
          <path id="Path_5263" data-name="Path 5263" d="M1111.121,892.292a.6.6,0,0,1-.444-.993l3.636-4.068a.6.6,0,1,1,.888.795l-3.636,4.068A.594.594,0,0,1,1111.121,892.292Z" transform="translate(-1110.393 -887.032)" fill="#77d7f8"/>
          <path id="Path_5264" data-name="Path 5264" d="M1114.412,893.052a.593.593,0,0,1-.4-.151l-3.9-3.486a.6.6,0,1,1,.794-.889l3.9,3.486a.6.6,0,0,1-.4,1.04Z" transform="translate(-1109.917 -888.083)" fill="#77d7f8"/>
        </g>
        <g id="Group_10788" data-name="Group 10788" transform="translate(3.105 13.532)">
          <path id="Path_5265" data-name="Path 5265" d="M1125.446,826.806a.6.6,0,0,1-.444-.993l3.637-4.067a.6.6,0,1,1,.889.794l-3.637,4.068A.594.594,0,0,1,1125.446,826.806Z" transform="translate(-1124.719 -821.547)" fill="#77d7f8"/>
          <path id="Path_5266" data-name="Path 5266" d="M1128.739,827.567a.594.594,0,0,1-.4-.152l-3.9-3.486a.6.6,0,0,1,.794-.889l3.9,3.486a.6.6,0,0,1-.4,1.04Z" transform="translate(-1124.243 -822.598)" fill="#77d7f8"/>
        </g>
        <g id="Group_10789" data-name="Group 10789" transform="translate(2.954)">
          <path id="Path_5267" data-name="Path 5267" d="M1124.75,764.363a.6.6,0,0,1-.444-.993l3.637-4.068a.6.6,0,1,1,.888.794l-3.636,4.068A.6.6,0,0,1,1124.75,764.363Z" transform="translate(-1124.022 -759.103)" fill="#77d7f8"/>
          <path id="Path_5268" data-name="Path 5268" d="M1128.041,765.122a.591.591,0,0,1-.4-.152l-3.9-3.486a.6.6,0,1,1,.794-.888l3.9,3.486a.6.6,0,0,1-.4,1.04Z" transform="translate(-1123.545 -760.153)" fill="#77d7f8"/>
        </g>
      </g>
      <g id="Group_10793" data-name="Group 10793" transform="translate(857.462 964.263)">
        <g id="Group_10792" data-name="Group 10792" transform="translate(0 0)">
          <g id="Group_10791" data-name="Group 10791" transform="translate(10.426 11.516)">
            <path id="Path_5269" data-name="Path 5269" d="M435.584,613.944a.7.7,0,0,1-.523-.222.672.672,0,0,1-.171-.512l.15-2.467a5.861,5.861,0,0,1-2.875-4.8c0-3.577,3.969-6.486,8.848-6.486s8.851,2.91,8.851,6.486-3.971,6.491-8.851,6.491a11.855,11.855,0,0,1-2.682-.3l-2.174,1.608A.982.982,0,0,1,435.584,613.944Zm5.429-13.3c-4.222,0-7.656,2.375-7.656,5.294a4.82,4.82,0,0,0,2.609,3.977l.307.187-.132,2.164,1.936-1.432.275.072a10.593,10.593,0,0,0,2.661.331c4.223,0,7.659-2.377,7.659-5.3S445.236,600.649,441.013,600.649Z" transform="translate(-432.165 -599.457)" fill="#77d7f8"/>
          </g>
          <path id="Path_5270" data-name="Path 5270" d="M388.188,567.861l.815-5.6c-3.106-1.676-4.947-4.268-4.947-7,0-4.929,5.88-8.939,13.108-8.939s13.105,4.01,13.105,8.939a6.432,6.432,0,0,1-.517,2.508l-.28.666-.6-.4a11.905,11.905,0,0,0-6.569-1.81c-5.041,0-9.142,2.642-9.142,5.89a3.843,3.843,0,0,0,.233,1.315l.148.414Zm8.976-20.351c-6.571,0-11.916,3.475-11.916,7.747,0,2.382,1.746,4.675,4.672,6.134l.386.192-.522,3.587,2.355-1.77a5.02,5.02,0,0,1-.171-1.292c0-3.905,4.636-7.082,10.333-7.082a13.471,13.471,0,0,1,6.583,1.612,5.119,5.119,0,0,0,.192-1.381C409.077,550.985,403.733,547.51,397.164,547.51Z" transform="translate(-384.056 -546.318)" fill="#77d7f8"/>
        </g>
      </g>
      <g id="Group_10794" data-name="Group 10794" transform="translate(879.155 1037.216)">
        <path id="Path_5271" data-name="Path 5271" d="M487.061,913.44h-2.31a.6.6,0,1,1,0-1.192h2.31a.6.6,0,1,1,0,1.192Z" transform="translate(-484.155 -905.901)" fill="#77d7f8"/>
        <path id="Path_5272" data-name="Path 5272" d="M534.982,913.44h-2.31a.6.6,0,0,1,0-1.192h2.31a.6.6,0,1,1,0,1.192Z" transform="translate(-521.691 -905.901)" fill="#77d7f8"/>
        <path id="Path_5273" data-name="Path 5273" d="M514.041,886.46a.6.6,0,0,1-.6-.6v-2.31a.6.6,0,1,1,1.192,0v2.31A.6.6,0,0,1,514.041,886.46Z" transform="translate(-507.098 -882.958)" fill="#77d7f8"/>
        <path id="Path_5274" data-name="Path 5274" d="M514.041,934.379a.6.6,0,0,1-.6-.6v-2.31a.6.6,0,0,1,1.192,0v2.31A.6.6,0,0,1,514.041,934.379Z" transform="translate(-507.098 -920.493)" fill="#77d7f8"/>
        <path id="Path_5275" data-name="Path 5275" d="M495.01,894.409a.594.594,0,0,1-.422-.175l-1.68-1.68a.6.6,0,0,1,.843-.843l1.68,1.681a.6.6,0,0,1-.421,1.017Z" transform="translate(-490.874 -889.678)" fill="#77d7f8"/>
        <path id="Path_5276" data-name="Path 5276" d="M528.855,928.253a.594.594,0,0,1-.421-.174l-1.68-1.68a.6.6,0,0,1,.843-.843l1.68,1.68a.6.6,0,0,1-.421,1.017Z" transform="translate(-517.385 -916.188)" fill="#77d7f8"/>
        <path id="Path_5277" data-name="Path 5277" d="M527.352,894.332a.6.6,0,0,1-.422-1.017l1.6-1.6a.6.6,0,0,1,.843.843l-1.6,1.6A.6.6,0,0,1,527.352,894.332Z" transform="translate(-517.524 -889.678)" fill="#77d7f8"/>
        <path id="Path_5278" data-name="Path 5278" d="M493.33,928.353a.6.6,0,0,1-.421-1.017l1.6-1.6a.6.6,0,1,1,.843.843l-1.6,1.6A.594.594,0,0,1,493.33,928.353Z" transform="translate(-490.874 -916.326)" fill="#77d7f8"/>
      </g>
      <path id="Path_5279" data-name="Path 5279" d="M1028.031,529.41a.6.6,0,0,1-.565-.406,42.377,42.377,0,0,0-15.706-20.53.6.6,0,1,1,.633-1.01,43.7,43.7,0,0,1,16.2,21.16.6.6,0,0,1-.565.786Z" transform="translate(-18.05 448.451)" fill="#77d7f8"/>
    </g>
  </g>
</svg>
