<svg xmlns="http://www.w3.org/2000/svg" width="50" height="50" viewBox="0 0 50 50">
  <g id="Group_10837" data-name="Group 10837" transform="translate(-9.989 -10)">
    <path id="Path_5280" data-name="Path 5280" d="M57.916,46.623a9.92,9.92,0,0,0-3.9,7.423,10.149,10.149,0,0,0-5.426-.535.628.628,0,0,0-.54.621,10.262,10.262,0,0,0,9.624,10.231v4.791a.628.628,0,1,0,1.255,0V64.363a10.263,10.263,0,0,0,9.62-10.231.628.628,0,0,0-.54-.621,10.145,10.145,0,0,0-5.427.535,9.921,9.921,0,0,0-3.9-7.423A.627.627,0,0,0,57.916,46.623Zm-.241,16.483a9.008,9.008,0,0,1-8.352-8.418,7.381,7.381,0,0,1,5.781,1.48c2.3,1.992,2.542,5.357,2.567,5.986,0,.055,0,.09,0,.1a.6.6,0,0,0,.005.076Zm9.6-8.418A9.007,9.007,0,0,1,58.931,63.1v-.849c0-.013,0-.048,0-.1.026-.63.27-4,2.567-5.987A7.382,7.382,0,0,1,67.278,54.687Zm-5.939.023a7.263,7.263,0,0,0-.673.515A8.434,8.434,0,0,0,58.3,58.849a8.436,8.436,0,0,0-2.366-3.624,7.06,7.06,0,0,0-.672-.515A8.664,8.664,0,0,1,58.3,47.929,8.667,8.667,0,0,1,61.339,54.71Z" transform="translate(-14.401 -13.803)"/>
    <path id="Path_5281" data-name="Path 5281" d="M29.489,50.819A16.016,16.016,0,1,0,50.8,29.491,20.414,20.414,0,1,0,29.489,50.819ZM12.756,37.934h8.018A28.958,28.958,0,0,0,28.568,49.5,19.077,19.077,0,0,1,12.756,37.934Zm7.987-7.513a21.517,21.517,0,0,1,.932-6.249H29.78v12.4c-.019.036-.038.073-.057.11H21.68A21.534,21.534,0,0,1,20.743,30.421Zm10.287-7.5V11.931a27.46,27.46,0,0,1,7.748,10.991Zm8.157,1.25a20.853,20.853,0,0,1,.8,4.291,16.059,16.059,0,0,0-8.958,6.1V24.172Zm-9.407-1.25H22.1A27.93,27.93,0,0,1,29.78,11.941Zm-.634,15.012a15.82,15.82,0,0,0-.76,9.667A27.429,27.429,0,0,1,22.1,37.934ZM58.739,43.98A14.766,14.766,0,1,1,43.973,29.211,14.784,14.784,0,0,1,58.739,43.98ZM43.973,27.961a16.084,16.084,0,0,0-2.755.242,22.511,22.511,0,0,0-.721-4.031h8.044a19.26,19.26,0,0,1,.97,4.777A15.925,15.925,0,0,0,43.973,27.961Zm4.086-5.039H40.115A27.832,27.832,0,0,0,32.271,11.34,19.076,19.076,0,0,1,48.06,22.922ZM28.551,11.341A28.25,28.25,0,0,0,20.74,22.922H12.767A19.211,19.211,0,0,1,28.551,11.341ZM12.29,24.172h8.068a23.064,23.064,0,0,0-.864,6.249,22.705,22.705,0,0,0,.885,6.263h-8.1a19.3,19.3,0,0,1-1.039-6.263A19.1,19.1,0,0,1,12.29,24.172Z"/>
  </g>
</svg>
